<mxfile host="app.diagrams.net" modified="2023-12-07T20:30:33.092Z" agent="Mozilla/5.0 (Windows NT 10.0; Win64; x64) AppleWebKit/537.36 (KHTML, like Gecko) Chrome/119.0.0.0 Safari/537.36" etag="yUGeu6zo3jly-FP0EEeT" version="22.1.7" type="github" pages="3">
  <diagram name="Дипломная DFD контекстная" id="iCDA3uhbWwXmXy_7WAAE">
    <mxGraphModel dx="2501" dy="1927" grid="1" gridSize="10" guides="1" tooltips="1" connect="1" arrows="1" fold="1" page="1" pageScale="1" pageWidth="827" pageHeight="1169" math="0" shadow="0">
      <root>
        <mxCell id="0" />
        <mxCell id="1" parent="0" />
        <mxCell id="KdfuaOJKc9M8GQp4HSfm-10" style="edgeStyle=orthogonalEdgeStyle;rounded=0;orthogonalLoop=1;jettySize=auto;html=1;exitX=0.5;exitY=0;exitDx=0;exitDy=0;entryX=0.5;entryY=0;entryDx=0;entryDy=0;" parent="1" source="KdfuaOJKc9M8GQp4HSfm-2" target="KdfuaOJKc9M8GQp4HSfm-4" edge="1">
          <mxGeometry relative="1" as="geometry">
            <Array as="points">
              <mxPoint x="45" y="-210" />
              <mxPoint x="515" y="-210" />
            </Array>
          </mxGeometry>
        </mxCell>
        <mxCell id="KdfuaOJKc9M8GQp4HSfm-2" value="0" style="swimlane;childLayout=stackLayout;horizontal=1;startSize=30;horizontalStack=0;rounded=1;fontSize=14;fontStyle=0;strokeWidth=1;resizeParent=0;resizeLast=1;shadow=0;dashed=0;align=center;fillColor=#FFFFFF;" parent="1" vertex="1">
          <mxGeometry x="-30" y="-60" width="150" height="110" as="geometry" />
        </mxCell>
        <mxCell id="KdfuaOJKc9M8GQp4HSfm-3" value="Приложение &quot;Stets&quot;" style="align=center;strokeColor=none;fillColor=none;spacingLeft=4;fontSize=12;verticalAlign=middle;resizable=0;rotatable=0;part=1;" parent="KdfuaOJKc9M8GQp4HSfm-2" vertex="1">
          <mxGeometry y="30" width="150" height="80" as="geometry" />
        </mxCell>
        <mxCell id="KdfuaOJKc9M8GQp4HSfm-4" value="Основной пользователь" style="html=1;dashed=0;whitespace=wrap;" parent="1" vertex="1">
          <mxGeometry x="440" y="-45" width="150" height="80" as="geometry" />
        </mxCell>
        <mxCell id="KdfuaOJKc9M8GQp4HSfm-5" value="Комната" style="html=1;dashed=0;whitespace=wrap;" parent="1" vertex="1">
          <mxGeometry x="-440" y="-40" width="150" height="80" as="geometry" />
        </mxCell>
        <mxCell id="KdfuaOJKc9M8GQp4HSfm-6" value="Устройство" style="html=1;dashed=0;whitespace=wrap;" parent="1" vertex="1">
          <mxGeometry x="-20" y="330" width="140" height="90" as="geometry" />
        </mxCell>
        <mxCell id="KdfuaOJKc9M8GQp4HSfm-8" style="edgeStyle=orthogonalEdgeStyle;rounded=0;orthogonalLoop=1;jettySize=auto;html=1;exitX=1;exitY=0.25;exitDx=0;exitDy=0;entryX=-0.008;entryY=0.113;entryDx=0;entryDy=0;entryPerimeter=0;" parent="1" source="KdfuaOJKc9M8GQp4HSfm-5" target="KdfuaOJKc9M8GQp4HSfm-3" edge="1">
          <mxGeometry relative="1" as="geometry">
            <mxPoint x="-40" y="-20" as="targetPoint" />
            <Array as="points">
              <mxPoint x="-31" y="-20" />
            </Array>
          </mxGeometry>
        </mxCell>
        <mxCell id="KdfuaOJKc9M8GQp4HSfm-11" value="Регистрация в приложении" style="text;html=1;align=center;verticalAlign=middle;resizable=0;points=[];autosize=1;strokeColor=none;fillColor=none;" parent="1" vertex="1">
          <mxGeometry x="170" y="-240" width="170" height="30" as="geometry" />
        </mxCell>
        <mxCell id="KdfuaOJKc9M8GQp4HSfm-13" value="Включение/выключение&lt;br&gt;устройства" style="text;html=1;align=center;verticalAlign=middle;resizable=0;points=[];autosize=1;strokeColor=none;fillColor=none;" parent="1" vertex="1">
          <mxGeometry x="50" y="180" width="160" height="40" as="geometry" />
        </mxCell>
        <mxCell id="KdfuaOJKc9M8GQp4HSfm-20" value="Добавление других&lt;br&gt;&amp;nbsp;учётных записей" style="text;html=1;align=center;verticalAlign=middle;resizable=0;points=[];autosize=1;strokeColor=none;fillColor=none;" parent="1" vertex="1">
          <mxGeometry x="210" y="-80" width="130" height="40" as="geometry" />
        </mxCell>
        <mxCell id="KdfuaOJKc9M8GQp4HSfm-24" value="Редактирование комнаты" style="text;html=1;align=center;verticalAlign=middle;resizable=0;points=[];autosize=1;strokeColor=none;fillColor=none;" parent="1" vertex="1">
          <mxGeometry x="-260" y="-45" width="170" height="30" as="geometry" />
        </mxCell>
        <mxCell id="KdfuaOJKc9M8GQp4HSfm-26" style="edgeStyle=orthogonalEdgeStyle;rounded=0;orthogonalLoop=1;jettySize=auto;html=1;exitX=0;exitY=0;exitDx=0;exitDy=0;endArrow=none;endFill=0;startArrow=classic;startFill=1;" parent="1" source="KdfuaOJKc9M8GQp4HSfm-4" edge="1">
          <mxGeometry relative="1" as="geometry">
            <mxPoint x="140" y="-45" as="targetPoint" />
            <Array as="points">
              <mxPoint x="121" y="-45" />
            </Array>
          </mxGeometry>
        </mxCell>
        <mxCell id="KdfuaOJKc9M8GQp4HSfm-28" style="edgeStyle=orthogonalEdgeStyle;rounded=0;orthogonalLoop=1;jettySize=auto;html=1;exitX=1;exitY=0.5;exitDx=0;exitDy=0;entryX=-0.001;entryY=0.683;entryDx=0;entryDy=0;entryPerimeter=0;" parent="1" source="KdfuaOJKc9M8GQp4HSfm-3" target="KdfuaOJKc9M8GQp4HSfm-4" edge="1">
          <mxGeometry relative="1" as="geometry" />
        </mxCell>
        <mxCell id="KdfuaOJKc9M8GQp4HSfm-29" value="Редактирование комнаты" style="text;html=1;align=center;verticalAlign=middle;resizable=0;points=[];autosize=1;strokeColor=none;fillColor=none;" parent="1" vertex="1">
          <mxGeometry x="190" y="-15" width="170" height="30" as="geometry" />
        </mxCell>
        <mxCell id="KdfuaOJKc9M8GQp4HSfm-30" style="edgeStyle=orthogonalEdgeStyle;rounded=0;orthogonalLoop=1;jettySize=auto;html=1;exitX=1;exitY=0.75;exitDx=0;exitDy=0;entryX=-0.008;entryY=0.621;entryDx=0;entryDy=0;entryPerimeter=0;" parent="1" source="KdfuaOJKc9M8GQp4HSfm-5" target="KdfuaOJKc9M8GQp4HSfm-3" edge="1">
          <mxGeometry relative="1" as="geometry" />
        </mxCell>
        <mxCell id="KdfuaOJKc9M8GQp4HSfm-31" value="Включение/выключение всей комнаты" style="text;html=1;align=center;verticalAlign=middle;resizable=0;points=[];autosize=1;strokeColor=none;fillColor=none;" parent="1" vertex="1">
          <mxGeometry x="-290" y="-10" width="240" height="30" as="geometry" />
        </mxCell>
        <mxCell id="KdfuaOJKc9M8GQp4HSfm-33" value="Включение/выключение всей комнаты" style="text;html=1;align=center;verticalAlign=middle;resizable=0;points=[];autosize=1;strokeColor=none;fillColor=none;" parent="1" vertex="1">
          <mxGeometry x="155" y="10" width="240" height="30" as="geometry" />
        </mxCell>
        <mxCell id="KdfuaOJKc9M8GQp4HSfm-35" style="edgeStyle=orthogonalEdgeStyle;rounded=0;orthogonalLoop=1;jettySize=auto;html=1;exitX=0;exitY=1;exitDx=0;exitDy=0;entryX=1;entryY=0.813;entryDx=0;entryDy=0;entryPerimeter=0;endArrow=none;endFill=0;startArrow=classic;startFill=1;" parent="1" source="KdfuaOJKc9M8GQp4HSfm-4" target="KdfuaOJKc9M8GQp4HSfm-3" edge="1">
          <mxGeometry relative="1" as="geometry">
            <Array as="points">
              <mxPoint x="360" y="35" />
              <mxPoint x="360" y="35" />
            </Array>
          </mxGeometry>
        </mxCell>
        <mxCell id="KdfuaOJKc9M8GQp4HSfm-36" style="edgeStyle=orthogonalEdgeStyle;rounded=0;orthogonalLoop=1;jettySize=auto;html=1;exitX=0.75;exitY=1;exitDx=0;exitDy=0;entryX=0.133;entryY=0.988;entryDx=0;entryDy=0;entryPerimeter=0;" parent="1" source="KdfuaOJKc9M8GQp4HSfm-3" target="KdfuaOJKc9M8GQp4HSfm-4" edge="1">
          <mxGeometry relative="1" as="geometry">
            <mxPoint x="460" y="50" as="targetPoint" />
            <Array as="points">
              <mxPoint x="110" y="50" />
              <mxPoint x="110" y="100" />
              <mxPoint x="460" y="100" />
            </Array>
          </mxGeometry>
        </mxCell>
        <mxCell id="KdfuaOJKc9M8GQp4HSfm-37" value="Включение/выключение&lt;br&gt;устройства" style="text;html=1;align=center;verticalAlign=middle;resizable=0;points=[];autosize=1;strokeColor=none;fillColor=none;" parent="1" vertex="1">
          <mxGeometry x="210" y="60" width="160" height="40" as="geometry" />
        </mxCell>
        <mxCell id="KdfuaOJKc9M8GQp4HSfm-38" style="edgeStyle=orthogonalEdgeStyle;rounded=0;orthogonalLoop=1;jettySize=auto;html=1;exitX=0.75;exitY=0;exitDx=0;exitDy=0;entryX=0.565;entryY=1;entryDx=0;entryDy=0;entryPerimeter=0;" parent="1" source="KdfuaOJKc9M8GQp4HSfm-6" target="KdfuaOJKc9M8GQp4HSfm-3" edge="1">
          <mxGeometry relative="1" as="geometry">
            <Array as="points">
              <mxPoint x="55" y="330" />
            </Array>
          </mxGeometry>
        </mxCell>
        <mxCell id="KdfuaOJKc9M8GQp4HSfm-41" value="Добавление&lt;br&gt;&amp;nbsp;устройства&lt;br&gt;&amp;nbsp;в профиль" style="text;html=1;align=center;verticalAlign=middle;resizable=0;points=[];autosize=1;strokeColor=none;fillColor=none;" parent="1" vertex="1">
          <mxGeometry x="-70" y="170" width="90" height="60" as="geometry" />
        </mxCell>
        <mxCell id="KdfuaOJKc9M8GQp4HSfm-42" style="edgeStyle=orthogonalEdgeStyle;rounded=0;orthogonalLoop=1;jettySize=auto;html=1;exitX=0.75;exitY=1;exitDx=0;exitDy=0;entryX=0.606;entryY=0.997;entryDx=0;entryDy=0;entryPerimeter=0;" parent="1" source="KdfuaOJKc9M8GQp4HSfm-3" target="KdfuaOJKc9M8GQp4HSfm-4" edge="1">
          <mxGeometry relative="1" as="geometry">
            <Array as="points">
              <mxPoint x="83" y="130" />
              <mxPoint x="531" y="130" />
            </Array>
          </mxGeometry>
        </mxCell>
        <mxCell id="KdfuaOJKc9M8GQp4HSfm-43" value="Добавление&lt;br&gt;&amp;nbsp;устройства&lt;br&gt;&amp;nbsp;в профиль" style="text;html=1;align=center;verticalAlign=middle;resizable=0;points=[];autosize=1;strokeColor=none;fillColor=none;" parent="1" vertex="1">
          <mxGeometry x="260" y="120" width="90" height="60" as="geometry" />
        </mxCell>
        <mxCell id="KdfuaOJKc9M8GQp4HSfm-44" style="edgeStyle=orthogonalEdgeStyle;rounded=0;orthogonalLoop=1;jettySize=auto;html=1;exitX=0.25;exitY=0;exitDx=0;exitDy=0;entryX=0.3;entryY=1;entryDx=0;entryDy=0;entryPerimeter=0;" parent="1" source="KdfuaOJKc9M8GQp4HSfm-6" target="KdfuaOJKc9M8GQp4HSfm-3" edge="1">
          <mxGeometry relative="1" as="geometry" />
        </mxCell>
      </root>
    </mxGraphModel>
  </diagram>
  <diagram id="3JmhofUtqVPCmSg4vzu_" name="Дипломная DFD логическая">
    <mxGraphModel grid="1" page="1" gridSize="10" guides="1" tooltips="1" connect="1" arrows="1" fold="1" pageScale="1" pageWidth="827" pageHeight="1169" math="0" shadow="0">
      <root>
        <mxCell id="0" />
        <mxCell id="1" parent="0" />
        <mxCell id="usVoT4ArwpDB47ou2eV8-13" style="edgeStyle=orthogonalEdgeStyle;rounded=0;orthogonalLoop=1;jettySize=auto;html=1;exitX=0.5;exitY=0;exitDx=0;exitDy=0;entryX=0.5;entryY=1;entryDx=0;entryDy=0;startArrow=classic;startFill=1;" edge="1" parent="1" source="16R-yYW4w5JBLt0UfPZW-2" target="usVoT4ArwpDB47ou2eV8-11">
          <mxGeometry relative="1" as="geometry" />
        </mxCell>
        <mxCell id="usVoT4ArwpDB47ou2eV8-15" value="Пользователи" style="edgeLabel;html=1;align=center;verticalAlign=middle;resizable=0;points=[];fontSize=15;" connectable="0" vertex="1" parent="usVoT4ArwpDB47ou2eV8-13">
          <mxGeometry x="-0.0587" y="-2" relative="1" as="geometry">
            <mxPoint as="offset" />
          </mxGeometry>
        </mxCell>
        <mxCell id="16R-yYW4w5JBLt0UfPZW-2" value="D1&amp;nbsp; &amp;nbsp; &amp;nbsp;Пользователи" style="html=1;dashed=0;whiteSpace=wrap;shape=mxgraph.dfd.dataStoreID;align=left;spacingLeft=3;points=[[0,0],[0.5,0],[1,0],[0,0.5],[1,0.5],[0,1],[0.5,1],[1,1]];" vertex="1" parent="1">
          <mxGeometry x="-759" y="1660" width="150" height="30" as="geometry" />
        </mxCell>
        <mxCell id="usVoT4ArwpDB47ou2eV8-14" style="edgeStyle=orthogonalEdgeStyle;rounded=0;orthogonalLoop=1;jettySize=auto;html=1;exitX=0.5;exitY=0;exitDx=0;exitDy=0;entryX=0.5;entryY=1;entryDx=0;entryDy=0;startArrow=none;startFill=0;" edge="1" parent="1" source="usVoT4ArwpDB47ou2eV8-10" target="usVoT4ArwpDB47ou2eV8-12">
          <mxGeometry relative="1" as="geometry" />
        </mxCell>
        <mxCell id="BwCM2XbH9EYKzXQFnI4B-1" value="Регистрация в приложении" style="edgeLabel;html=1;align=center;verticalAlign=middle;resizable=0;points=[];" connectable="0" vertex="1" parent="usVoT4ArwpDB47ou2eV8-14">
          <mxGeometry x="0.0738" relative="1" as="geometry">
            <mxPoint as="offset" />
          </mxGeometry>
        </mxCell>
        <mxCell id="usVoT4ArwpDB47ou2eV8-10" value="1" style="swimlane;childLayout=stackLayout;horizontal=1;startSize=30;horizontalStack=0;rounded=1;fontSize=14;fontStyle=0;strokeWidth=1;resizeParent=0;resizeLast=1;shadow=0;dashed=0;align=center;fillColor=#FFFFFF;" vertex="1" parent="1">
          <mxGeometry x="-760" y="1405" width="150" height="110" as="geometry" />
        </mxCell>
        <mxCell id="usVoT4ArwpDB47ou2eV8-11" value="Управлять учётной&#xa; записью" style="align=center;strokeColor=none;fillColor=none;spacingLeft=4;fontSize=12;verticalAlign=middle;resizable=0;rotatable=0;part=1;" vertex="1" parent="usVoT4ArwpDB47ou2eV8-10">
          <mxGeometry y="30" width="150" height="80" as="geometry" />
        </mxCell>
        <mxCell id="usVoT4ArwpDB47ou2eV8-12" value="Пользователь" style="html=1;dashed=0;whitespace=wrap;" vertex="1" parent="1">
          <mxGeometry x="-760" y="1190" width="151" height="80" as="geometry" />
        </mxCell>
        <mxCell id="usVoT4ArwpDB47ou2eV8-24" style="edgeStyle=orthogonalEdgeStyle;rounded=0;orthogonalLoop=1;jettySize=auto;html=1;exitX=0.5;exitY=0;exitDx=0;exitDy=0;" edge="1" parent="1" source="usVoT4ArwpDB47ou2eV8-16" target="usVoT4ArwpDB47ou2eV8-22">
          <mxGeometry relative="1" as="geometry" />
        </mxCell>
        <mxCell id="FMf7euEkCGlJJvxIxrYw-1" value="Включение/выключение&lt;br&gt;устройств" style="edgeLabel;html=1;align=center;verticalAlign=middle;resizable=0;points=[];" connectable="0" vertex="1" parent="usVoT4ArwpDB47ou2eV8-24">
          <mxGeometry x="0.0517" relative="1" as="geometry">
            <mxPoint as="offset" />
          </mxGeometry>
        </mxCell>
        <mxCell id="usVoT4ArwpDB47ou2eV8-16" value="2" style="swimlane;childLayout=stackLayout;horizontal=1;startSize=30;horizontalStack=0;rounded=1;fontSize=14;fontStyle=0;strokeWidth=1;resizeParent=0;resizeLast=1;shadow=0;dashed=0;align=center;fillColor=#FFFFFF;" vertex="1" parent="1">
          <mxGeometry x="1" y="1395" width="150" height="110" as="geometry" />
        </mxCell>
        <mxCell id="usVoT4ArwpDB47ou2eV8-17" value="Управлять домом" style="align=center;strokeColor=none;fillColor=none;spacingLeft=4;fontSize=12;verticalAlign=middle;resizable=0;rotatable=0;part=1;" vertex="1" parent="usVoT4ArwpDB47ou2eV8-16">
          <mxGeometry y="30" width="150" height="80" as="geometry" />
        </mxCell>
        <mxCell id="usVoT4ArwpDB47ou2eV8-21" style="edgeStyle=orthogonalEdgeStyle;rounded=0;orthogonalLoop=1;jettySize=auto;html=1;exitX=0.5;exitY=0;exitDx=0;exitDy=0;entryX=0.5;entryY=1;entryDx=0;entryDy=0;startArrow=classic;startFill=1;" edge="1" parent="1" source="usVoT4ArwpDB47ou2eV8-19" target="usVoT4ArwpDB47ou2eV8-17">
          <mxGeometry relative="1" as="geometry" />
        </mxCell>
        <mxCell id="bX8skXJ4z7FP3SSwRiKW-3" value="Дома" style="edgeLabel;html=1;align=center;verticalAlign=middle;resizable=0;points=[];" connectable="0" vertex="1" parent="usVoT4ArwpDB47ou2eV8-21">
          <mxGeometry x="0.045" y="1" relative="1" as="geometry">
            <mxPoint as="offset" />
          </mxGeometry>
        </mxCell>
        <mxCell id="usVoT4ArwpDB47ou2eV8-19" value="D2&lt;span style=&quot;white-space: pre;&quot;&gt;&#x9;&lt;/span&gt;&amp;nbsp; Дома" style="html=1;dashed=0;whiteSpace=wrap;shape=mxgraph.dfd.dataStoreID;align=left;spacingLeft=3;points=[[0,0],[0.5,0],[1,0],[0,0.5],[1,0.5],[0,1],[0.5,1],[1,1]];" vertex="1" parent="1">
          <mxGeometry x="1" y="1650" width="150" height="30" as="geometry" />
        </mxCell>
        <mxCell id="usVoT4ArwpDB47ou2eV8-22" value="Пользователь" style="html=1;dashed=0;whitespace=wrap;" vertex="1" parent="1">
          <mxGeometry y="1180" width="151" height="80" as="geometry" />
        </mxCell>
        <mxCell id="usVoT4ArwpDB47ou2eV8-25" value="3" style="swimlane;childLayout=stackLayout;horizontal=1;startSize=30;horizontalStack=0;rounded=1;fontSize=14;fontStyle=0;strokeWidth=1;resizeParent=0;resizeLast=1;shadow=0;dashed=0;align=center;fillColor=#FFFFFF;" vertex="1" parent="1">
          <mxGeometry x="-760" y="2045" width="150" height="110" as="geometry" />
        </mxCell>
        <mxCell id="usVoT4ArwpDB47ou2eV8-26" value="Управлять комнатами" style="align=center;strokeColor=none;fillColor=none;spacingLeft=4;fontSize=12;verticalAlign=middle;resizable=0;rotatable=0;part=1;" vertex="1" parent="usVoT4ArwpDB47ou2eV8-25">
          <mxGeometry y="30" width="150" height="80" as="geometry" />
        </mxCell>
        <mxCell id="usVoT4ArwpDB47ou2eV8-28" style="edgeStyle=orthogonalEdgeStyle;rounded=0;orthogonalLoop=1;jettySize=auto;html=1;exitX=0.5;exitY=0;exitDx=0;exitDy=0;entryX=0.5;entryY=1;entryDx=0;entryDy=0;startArrow=classic;startFill=1;" edge="1" parent="1" source="usVoT4ArwpDB47ou2eV8-27" target="usVoT4ArwpDB47ou2eV8-26">
          <mxGeometry relative="1" as="geometry" />
        </mxCell>
        <mxCell id="bX8skXJ4z7FP3SSwRiKW-7" value="Комнаты" style="edgeLabel;html=1;align=center;verticalAlign=middle;resizable=0;points=[];" connectable="0" vertex="1" parent="usVoT4ArwpDB47ou2eV8-28">
          <mxGeometry x="0.0844" y="1" relative="1" as="geometry">
            <mxPoint as="offset" />
          </mxGeometry>
        </mxCell>
        <mxCell id="usVoT4ArwpDB47ou2eV8-27" value="D3&lt;span style=&quot;white-space: pre;&quot;&gt;&#x9;&lt;/span&gt;&amp;nbsp; Комнаты" style="html=1;dashed=0;whiteSpace=wrap;shape=mxgraph.dfd.dataStoreID;align=left;spacingLeft=3;points=[[0,0],[0.5,0],[1,0],[0,0.5],[1,0.5],[0,1],[0.5,1],[1,1]];" vertex="1" parent="1">
          <mxGeometry x="-760" y="2300" width="150" height="30" as="geometry" />
        </mxCell>
        <mxCell id="usVoT4ArwpDB47ou2eV8-36" style="edgeStyle=orthogonalEdgeStyle;rounded=0;orthogonalLoop=1;jettySize=auto;html=1;exitX=0.5;exitY=0;exitDx=0;exitDy=0;entryX=0.5;entryY=1;entryDx=0;entryDy=0;startArrow=classic;startFill=1;" edge="1" parent="1" source="usVoT4ArwpDB47ou2eV8-33" target="usVoT4ArwpDB47ou2eV8-35">
          <mxGeometry relative="1" as="geometry" />
        </mxCell>
        <mxCell id="R1z74eV_PPRYq4lYSA81-2" value="Устройства" style="edgeLabel;html=1;align=center;verticalAlign=middle;resizable=0;points=[];" connectable="0" vertex="1" parent="usVoT4ArwpDB47ou2eV8-36">
          <mxGeometry x="-0.0034" y="-1" relative="1" as="geometry">
            <mxPoint x="1" y="1" as="offset" />
          </mxGeometry>
        </mxCell>
        <mxCell id="usVoT4ArwpDB47ou2eV8-33" value="D4&lt;span style=&quot;white-space: pre;&quot;&gt;&#x9;&lt;/span&gt;&amp;nbsp; Устройства" style="html=1;dashed=0;whiteSpace=wrap;shape=mxgraph.dfd.dataStoreID;align=left;spacingLeft=3;points=[[0,0],[0.5,0],[1,0],[0,0.5],[1,0.5],[0,1],[0.5,1],[1,1]];" vertex="1" parent="1">
          <mxGeometry x="80.5" y="2295" width="150" height="30" as="geometry" />
        </mxCell>
        <mxCell id="usVoT4ArwpDB47ou2eV8-34" value="4" style="swimlane;childLayout=stackLayout;horizontal=1;startSize=30;horizontalStack=0;rounded=1;fontSize=14;fontStyle=0;strokeWidth=1;resizeParent=0;resizeLast=1;shadow=0;dashed=0;align=center;fillColor=#FFFFFF;" vertex="1" parent="1">
          <mxGeometry x="80" y="2040" width="150" height="110" as="geometry" />
        </mxCell>
        <mxCell id="usVoT4ArwpDB47ou2eV8-35" value="Управлять устройством" style="align=center;strokeColor=none;fillColor=none;spacingLeft=4;fontSize=12;verticalAlign=middle;resizable=0;rotatable=0;part=1;" vertex="1" parent="usVoT4ArwpDB47ou2eV8-34">
          <mxGeometry y="30" width="150" height="80" as="geometry" />
        </mxCell>
        <mxCell id="usVoT4ArwpDB47ou2eV8-42" style="edgeStyle=orthogonalEdgeStyle;rounded=0;orthogonalLoop=1;jettySize=auto;html=1;exitX=0.5;exitY=0;exitDx=0;exitDy=0;entryX=0.5;entryY=1;entryDx=0;entryDy=0;startArrow=none;startFill=0;" edge="1" parent="1" source="usVoT4ArwpDB47ou2eV8-37" target="usVoT4ArwpDB47ou2eV8-41">
          <mxGeometry relative="1" as="geometry" />
        </mxCell>
        <mxCell id="R1z74eV_PPRYq4lYSA81-3" value="Включение/выключение&lt;br&gt;устройств" style="edgeLabel;html=1;align=center;verticalAlign=middle;resizable=0;points=[];" connectable="0" vertex="1" parent="usVoT4ArwpDB47ou2eV8-42">
          <mxGeometry x="0.0086" y="1" relative="1" as="geometry">
            <mxPoint as="offset" />
          </mxGeometry>
        </mxCell>
        <mxCell id="usVoT4ArwpDB47ou2eV8-37" value="5" style="swimlane;childLayout=stackLayout;horizontal=1;startSize=30;horizontalStack=0;rounded=1;fontSize=14;fontStyle=0;strokeWidth=1;resizeParent=0;resizeLast=1;shadow=0;dashed=0;align=center;fillColor=#FFFFFF;" vertex="1" parent="1">
          <mxGeometry x="-759" y="2685" width="150" height="110" as="geometry" />
        </mxCell>
        <mxCell id="usVoT4ArwpDB47ou2eV8-38" value="Управлять сценарием" style="align=center;strokeColor=none;fillColor=none;spacingLeft=4;fontSize=12;verticalAlign=middle;resizable=0;rotatable=0;part=1;" vertex="1" parent="usVoT4ArwpDB47ou2eV8-37">
          <mxGeometry y="30" width="150" height="80" as="geometry" />
        </mxCell>
        <mxCell id="usVoT4ArwpDB47ou2eV8-39" value="D5&lt;span style=&quot;white-space: pre;&quot;&gt;&#x9;&lt;/span&gt;&amp;nbsp; Сценарии" style="html=1;dashed=0;whiteSpace=wrap;shape=mxgraph.dfd.dataStoreID;align=left;spacingLeft=3;points=[[0,0],[0.5,0],[1,0],[0,0.5],[1,0.5],[0,1],[0.5,1],[1,1]];" vertex="1" parent="1">
          <mxGeometry x="-409" y="2740" width="150" height="30" as="geometry" />
        </mxCell>
        <mxCell id="usVoT4ArwpDB47ou2eV8-40" style="edgeStyle=orthogonalEdgeStyle;rounded=0;orthogonalLoop=1;jettySize=auto;html=1;exitX=1;exitY=0.5;exitDx=0;exitDy=0;entryX=0;entryY=0.5;entryDx=0;entryDy=0;startArrow=classic;startFill=1;" edge="1" parent="1" source="usVoT4ArwpDB47ou2eV8-38" target="usVoT4ArwpDB47ou2eV8-39">
          <mxGeometry relative="1" as="geometry">
            <mxPoint x="-459" y="2755.5714285714284" as="targetPoint" />
          </mxGeometry>
        </mxCell>
        <mxCell id="R1z74eV_PPRYq4lYSA81-1" value="Сценарии" style="edgeLabel;html=1;align=center;verticalAlign=middle;resizable=0;points=[];" connectable="0" vertex="1" parent="usVoT4ArwpDB47ou2eV8-40">
          <mxGeometry x="-0.12" y="3" relative="1" as="geometry">
            <mxPoint x="12" y="3" as="offset" />
          </mxGeometry>
        </mxCell>
        <mxCell id="usVoT4ArwpDB47ou2eV8-41" value="Пользователь" style="html=1;dashed=0;whitespace=wrap;" vertex="1" parent="1">
          <mxGeometry x="-760" y="2470" width="151" height="80" as="geometry" />
        </mxCell>
        <mxCell id="SNlT4a9jqBWLyEt1xWT--2" value="Пользователь" style="html=1;dashed=0;whitespace=wrap;" vertex="1" parent="1">
          <mxGeometry x="420" y="2060" width="151" height="80" as="geometry" />
        </mxCell>
        <mxCell id="SNlT4a9jqBWLyEt1xWT--4" style="edgeStyle=orthogonalEdgeStyle;rounded=0;orthogonalLoop=1;jettySize=auto;html=1;exitX=1;exitY=0.5;exitDx=0;exitDy=0;entryX=0.014;entryY=0.571;entryDx=0;entryDy=0;entryPerimeter=0;" edge="1" parent="1" source="usVoT4ArwpDB47ou2eV8-35" target="SNlT4a9jqBWLyEt1xWT--2">
          <mxGeometry relative="1" as="geometry" />
        </mxCell>
        <mxCell id="SNlT4a9jqBWLyEt1xWT--5" value="Пользователь" style="html=1;dashed=0;whitespace=wrap;" vertex="1" parent="1">
          <mxGeometry x="-421" y="2070" width="151" height="80" as="geometry" />
        </mxCell>
        <mxCell id="SNlT4a9jqBWLyEt1xWT--6" style="edgeStyle=orthogonalEdgeStyle;rounded=0;orthogonalLoop=1;jettySize=auto;html=1;exitX=1;exitY=0.5;exitDx=0;exitDy=0;entryX=0.009;entryY=0.569;entryDx=0;entryDy=0;entryPerimeter=0;" edge="1" parent="1" source="usVoT4ArwpDB47ou2eV8-26" target="SNlT4a9jqBWLyEt1xWT--5">
          <mxGeometry relative="1" as="geometry" />
        </mxCell>
        <mxCell id="v9GY5Tgu4wbXm-Zzgztj-1" value="Редактирование&lt;br&gt;комнаты" style="edgeLabel;html=1;align=center;verticalAlign=middle;resizable=0;points=[];" connectable="0" vertex="1" parent="SNlT4a9jqBWLyEt1xWT--6">
          <mxGeometry x="-0.277" y="-2" relative="1" as="geometry">
            <mxPoint x="30" as="offset" />
          </mxGeometry>
        </mxCell>
        <mxCell id="3FDNr9Xsxn98debfx9rp-1" value="Комната" style="html=1;dashed=0;whitespace=wrap;" vertex="1" parent="1">
          <mxGeometry x="-400" y="1425" width="150" height="80" as="geometry" />
        </mxCell>
        <mxCell id="3FDNr9Xsxn98debfx9rp-2" value="Устройство" style="html=1;dashed=0;whitespace=wrap;" vertex="1" parent="1">
          <mxGeometry x="390" y="1425" width="150" height="80" as="geometry" />
        </mxCell>
        <mxCell id="3FDNr9Xsxn98debfx9rp-3" style="edgeStyle=orthogonalEdgeStyle;rounded=0;orthogonalLoop=1;jettySize=auto;html=1;exitX=1;exitY=0.5;exitDx=0;exitDy=0;entryX=0;entryY=0.5;entryDx=0;entryDy=0;endArrow=none;endFill=0;startArrow=classic;startFill=1;" edge="1" parent="1" source="usVoT4ArwpDB47ou2eV8-17" target="3FDNr9Xsxn98debfx9rp-2">
          <mxGeometry relative="1" as="geometry">
            <mxPoint x="270" y="1465.571428571429" as="targetPoint" />
          </mxGeometry>
        </mxCell>
        <mxCell id="bX8skXJ4z7FP3SSwRiKW-1" value="Включение/выключение&lt;br&gt;устройства" style="edgeLabel;html=1;align=center;verticalAlign=middle;resizable=0;points=[];" connectable="0" vertex="1" parent="3FDNr9Xsxn98debfx9rp-3">
          <mxGeometry x="-0.1994" relative="1" as="geometry">
            <mxPoint x="23" as="offset" />
          </mxGeometry>
        </mxCell>
        <mxCell id="3FDNr9Xsxn98debfx9rp-4" style="edgeStyle=orthogonalEdgeStyle;rounded=0;orthogonalLoop=1;jettySize=auto;html=1;exitX=0;exitY=0.5;exitDx=0;exitDy=0;startArrow=classic;startFill=1;endArrow=none;endFill=0;" edge="1" parent="1" source="usVoT4ArwpDB47ou2eV8-17" target="3FDNr9Xsxn98debfx9rp-1">
          <mxGeometry relative="1" as="geometry" />
        </mxCell>
        <mxCell id="bX8skXJ4z7FP3SSwRiKW-2" value="Включение/выключение&lt;br&gt;всей комнаты" style="edgeLabel;html=1;align=center;verticalAlign=middle;resizable=0;points=[];" connectable="0" vertex="1" parent="3FDNr9Xsxn98debfx9rp-4">
          <mxGeometry x="0.4043" y="1" relative="1" as="geometry">
            <mxPoint x="55" y="-1" as="offset" />
          </mxGeometry>
        </mxCell>
        <mxCell id="bX8skXJ4z7FP3SSwRiKW-5" value="Комната" style="html=1;dashed=0;whitespace=wrap;" vertex="1" parent="1">
          <mxGeometry x="-762" y="1780" width="150" height="80" as="geometry" />
        </mxCell>
        <mxCell id="bX8skXJ4z7FP3SSwRiKW-6" style="edgeStyle=orthogonalEdgeStyle;rounded=0;orthogonalLoop=1;jettySize=auto;html=1;exitX=0.5;exitY=1;exitDx=0;exitDy=0;entryX=0.482;entryY=0.023;entryDx=0;entryDy=0;entryPerimeter=0;" edge="1" parent="1" source="bX8skXJ4z7FP3SSwRiKW-5" target="usVoT4ArwpDB47ou2eV8-25">
          <mxGeometry relative="1" as="geometry" />
        </mxCell>
        <mxCell id="Y3sqrABUQvkdm8EXPz4N-1" value="Редактирование&lt;br&gt;&amp;nbsp;комнаты" style="edgeLabel;html=1;align=center;verticalAlign=middle;resizable=0;points=[];" connectable="0" vertex="1" parent="bX8skXJ4z7FP3SSwRiKW-6">
          <mxGeometry x="-0.1151" y="-2" relative="1" as="geometry">
            <mxPoint as="offset" />
          </mxGeometry>
        </mxCell>
        <mxCell id="v9GY5Tgu4wbXm-Zzgztj-3" style="edgeStyle=orthogonalEdgeStyle;rounded=0;orthogonalLoop=1;jettySize=auto;html=1;exitX=0.5;exitY=1;exitDx=0;exitDy=0;entryX=0.5;entryY=0;entryDx=0;entryDy=0;" edge="1" parent="1" source="v9GY5Tgu4wbXm-Zzgztj-2" target="usVoT4ArwpDB47ou2eV8-34">
          <mxGeometry relative="1" as="geometry" />
        </mxCell>
        <mxCell id="D4cvCjOkc0AdhuZRy13a-1" value="Добавление устройства&lt;br&gt;в профиль" style="edgeLabel;html=1;align=center;verticalAlign=middle;resizable=0;points=[];" connectable="0" vertex="1" parent="v9GY5Tgu4wbXm-Zzgztj-3">
          <mxGeometry x="-0.24" y="3" relative="1" as="geometry">
            <mxPoint as="offset" />
          </mxGeometry>
        </mxCell>
        <mxCell id="D4cvCjOkc0AdhuZRy13a-2" value="Добавление устройства&lt;br&gt;в профиль" style="edgeLabel;html=1;align=center;verticalAlign=middle;resizable=0;points=[];" connectable="0" vertex="1" parent="v9GY5Tgu4wbXm-Zzgztj-3">
          <mxGeometry x="-0.24" y="3" relative="1" as="geometry">
            <mxPoint x="162" y="163" as="offset" />
          </mxGeometry>
        </mxCell>
        <mxCell id="v9GY5Tgu4wbXm-Zzgztj-2" value="Устройство" style="html=1;dashed=0;whitespace=wrap;" vertex="1" parent="1">
          <mxGeometry x="80" y="1810" width="150" height="80" as="geometry" />
        </mxCell>
      </root>
    </mxGraphModel>
  </diagram>
  <diagram id="M3PdenBmbSxeyL8Jr0B8" name="Логическая ER модель">
    <mxGraphModel grid="1" page="1" gridSize="10" guides="1" tooltips="1" connect="1" arrows="1" fold="1" pageScale="1" pageWidth="827" pageHeight="1169" math="0" shadow="0">
      <root>
        <mxCell id="0" />
        <mxCell id="1" parent="0" />
        <mxCell id="2kUyLPop5DmHTjhKpn4S-7" value="&lt;b style=&quot;border-color: var(--border-color); font-size: 42px;&quot;&gt;Логическая ER-диаграмма в нотации Crow&#39;s Foot&lt;/b&gt;" style="rounded=0;whiteSpace=wrap;html=1;fontSize=32;fillColor=#FFB570;" vertex="1" parent="1">
          <mxGeometry x="-817" y="-340" width="1000" height="100" as="geometry" />
        </mxCell>
        <mxCell id="2kUyLPop5DmHTjhKpn4S-8" value="&lt;font style=&quot;font-size: 32px;&quot;&gt;Логическая ER-модель в 1 НФ&lt;/font&gt;" style="rounded=0;whiteSpace=wrap;html=1;fontSize=32;fillColor=#FFB570;" vertex="1" parent="1">
          <mxGeometry x="-817" y="530" width="990" height="80" as="geometry" />
        </mxCell>
        <mxCell id="2kUyLPop5DmHTjhKpn4S-11" value="&lt;font style=&quot;font-size: 32px;&quot;&gt;Логическая ER-модель в 2 НФ&lt;/font&gt;" style="rounded=0;whiteSpace=wrap;html=1;fontSize=32;fillColor=#FFB570;" vertex="1" parent="1">
          <mxGeometry x="620" y="-350" width="990" height="80" as="geometry" />
        </mxCell>
        <mxCell id="2kUyLPop5DmHTjhKpn4S-24" value="&lt;font style=&quot;font-size: 32px;&quot;&gt;Логическая ER-модель в 3 НФ&lt;/font&gt;" style="rounded=0;whiteSpace=wrap;html=1;fontSize=32;fillColor=#FFB570;" vertex="1" parent="1">
          <mxGeometry x="620" y="870" width="990" height="80" as="geometry" />
        </mxCell>
        <mxCell id="hJLpUrD6T7mpoo33THOg-14" value="Пользователь" style="swimlane;childLayout=stackLayout;horizontal=1;startSize=50;horizontalStack=0;rounded=1;fontSize=14;fontStyle=0;strokeWidth=2;resizeParent=0;resizeLast=1;shadow=0;dashed=0;align=center;arcSize=4;whiteSpace=wrap;html=1;fillColor=#33FF33;" vertex="1" parent="1">
          <mxGeometry x="-704" y="-210" width="160" height="130" as="geometry" />
        </mxCell>
        <mxCell id="hJLpUrD6T7mpoo33THOg-15" value="* Электронный адрес&lt;br&gt;&amp;nbsp; Имя&lt;br&gt;&amp;nbsp; Номер телефона" style="align=left;strokeColor=none;fillColor=none;spacingLeft=4;fontSize=12;verticalAlign=top;resizable=0;rotatable=0;part=1;html=1;" vertex="1" parent="hJLpUrD6T7mpoo33THOg-14">
          <mxGeometry y="50" width="160" height="80" as="geometry" />
        </mxCell>
        <mxCell id="hJLpUrD6T7mpoo33THOg-20" value="Дом" style="swimlane;childLayout=stackLayout;horizontal=1;startSize=50;horizontalStack=0;rounded=1;fontSize=14;fontStyle=0;strokeWidth=2;resizeParent=0;resizeLast=1;shadow=0;dashed=0;align=center;arcSize=4;whiteSpace=wrap;html=1;fillColor=#33FF33;verticalAlign=middle;" vertex="1" parent="1">
          <mxGeometry x="-434" y="-40" width="180" height="139" as="geometry" />
        </mxCell>
        <mxCell id="4mtBm1pnFT7cWW-_lhDn-23" value="* Уникальный номер дома&lt;br style=&quot;border-color: var(--border-color);&quot;&gt;&amp;nbsp; Название дома&amp;nbsp;&amp;nbsp;&lt;br style=&quot;border-color: var(--border-color);&quot;&gt;&lt;br style=&quot;border-color: var(--border-color);&quot;&gt;&lt;br&gt;&lt;br&gt;" style="text;html=1;align=left;verticalAlign=middle;resizable=0;points=[];autosize=1;strokeColor=none;fillColor=none;" vertex="1" parent="hJLpUrD6T7mpoo33THOg-20">
          <mxGeometry y="50" width="180" height="89" as="geometry" />
        </mxCell>
        <mxCell id="4mtBm1pnFT7cWW-_lhDn-9" value="" style="edgeStyle=entityRelationEdgeStyle;fontSize=12;html=1;endArrow=ERoneToMany;startArrow=ERoneToMany;rounded=0;entryX=1;entryY=0.25;entryDx=0;entryDy=0;exitX=0;exitY=0.5;exitDx=0;exitDy=0;startFill=0;" edge="1" parent="1" source="hJLpUrD6T7mpoo33THOg-20" target="hJLpUrD6T7mpoo33THOg-15">
          <mxGeometry width="100" height="100" relative="1" as="geometry">
            <mxPoint x="-354" y="340" as="sourcePoint" />
            <mxPoint x="-254" y="240" as="targetPoint" />
          </mxGeometry>
        </mxCell>
        <mxCell id="97YN6V64Y0gJDFzc9_jx-86" value="Создаёт" style="edgeLabel;html=1;align=center;verticalAlign=middle;resizable=0;points=[];" connectable="0" vertex="1" parent="4mtBm1pnFT7cWW-_lhDn-9">
          <mxGeometry x="-0.0041" relative="1" as="geometry">
            <mxPoint as="offset" />
          </mxGeometry>
        </mxCell>
        <mxCell id="4mtBm1pnFT7cWW-_lhDn-10" value="" style="edgeStyle=entityRelationEdgeStyle;fontSize=12;html=1;endArrow=ERoneToMany;startArrow=ERzeroToMany;rounded=0;entryX=1;entryY=0.5;entryDx=0;entryDy=0;exitX=0;exitY=0.5;exitDx=0;exitDy=0;startFill=0;" edge="1" parent="1" source="4mtBm1pnFT7cWW-_lhDn-12" target="hJLpUrD6T7mpoo33THOg-20">
          <mxGeometry width="100" height="100" relative="1" as="geometry">
            <mxPoint x="-154" y="390" as="sourcePoint" />
            <mxPoint x="-54" y="290" as="targetPoint" />
          </mxGeometry>
        </mxCell>
        <mxCell id="97YN6V64Y0gJDFzc9_jx-87" value="Имеет" style="edgeLabel;html=1;align=center;verticalAlign=middle;resizable=0;points=[];" connectable="0" vertex="1" parent="4mtBm1pnFT7cWW-_lhDn-10">
          <mxGeometry x="0.0568" y="-1" relative="1" as="geometry">
            <mxPoint y="-12" as="offset" />
          </mxGeometry>
        </mxCell>
        <mxCell id="4mtBm1pnFT7cWW-_lhDn-11" value="Комната" style="swimlane;childLayout=stackLayout;horizontal=1;startSize=50;horizontalStack=0;rounded=1;fontSize=14;fontStyle=0;strokeWidth=2;resizeParent=0;resizeLast=1;shadow=0;dashed=0;align=center;arcSize=4;whiteSpace=wrap;html=1;fillColor=#33FF33;" vertex="1" parent="1">
          <mxGeometry x="-160" y="-180" width="160" height="120" as="geometry" />
        </mxCell>
        <mxCell id="4mtBm1pnFT7cWW-_lhDn-12" value="* Название комнаты&lt;br&gt;&amp;nbsp; Привязанные устройства&lt;br&gt;&amp;nbsp; Статус комнаты" style="align=left;strokeColor=none;fillColor=none;spacingLeft=4;fontSize=12;verticalAlign=top;resizable=0;rotatable=0;part=1;html=1;" vertex="1" parent="4mtBm1pnFT7cWW-_lhDn-11">
          <mxGeometry y="50" width="160" height="70" as="geometry" />
        </mxCell>
        <mxCell id="4mtBm1pnFT7cWW-_lhDn-13" value="Устройство" style="swimlane;childLayout=stackLayout;horizontal=1;startSize=50;horizontalStack=0;rounded=1;fontSize=14;fontStyle=0;strokeWidth=2;resizeParent=0;resizeLast=1;shadow=0;dashed=0;align=center;arcSize=4;whiteSpace=wrap;html=1;fillColor=#33FF33;" vertex="1" parent="1">
          <mxGeometry x="-720" y="150" width="160" height="135" as="geometry" />
        </mxCell>
        <mxCell id="4mtBm1pnFT7cWW-_lhDn-14" value="* Номер устройства&lt;br&gt;&amp;nbsp; Статус устройства&lt;br&gt;&amp;nbsp; Цвет&lt;br&gt;&amp;nbsp; Яркость&lt;br&gt;&amp;nbsp; Энергосбережение" style="align=left;strokeColor=none;fillColor=none;spacingLeft=4;fontSize=12;verticalAlign=top;resizable=0;rotatable=0;part=1;html=1;" vertex="1" parent="4mtBm1pnFT7cWW-_lhDn-13">
          <mxGeometry y="50" width="160" height="85" as="geometry" />
        </mxCell>
        <mxCell id="4mtBm1pnFT7cWW-_lhDn-15" value="" style="edgeStyle=entityRelationEdgeStyle;fontSize=12;html=1;endArrow=ERoneToMany;startArrow=ERzeroToMany;rounded=0;entryX=0;entryY=0.75;entryDx=0;entryDy=0;exitX=1;exitY=0;exitDx=0;exitDy=0;" edge="1" parent="1" source="4mtBm1pnFT7cWW-_lhDn-14" target="hJLpUrD6T7mpoo33THOg-20">
          <mxGeometry width="100" height="100" relative="1" as="geometry">
            <mxPoint x="-194" y="380" as="sourcePoint" />
            <mxPoint x="-94" y="280" as="targetPoint" />
          </mxGeometry>
        </mxCell>
        <mxCell id="97YN6V64Y0gJDFzc9_jx-88" value="Привязано" style="edgeLabel;html=1;align=center;verticalAlign=middle;resizable=0;points=[];" connectable="0" vertex="1" parent="4mtBm1pnFT7cWW-_lhDn-15">
          <mxGeometry x="0.0569" y="-2" relative="1" as="geometry">
            <mxPoint as="offset" />
          </mxGeometry>
        </mxCell>
        <mxCell id="4mtBm1pnFT7cWW-_lhDn-16" value="Сценарий" style="swimlane;childLayout=stackLayout;horizontal=1;startSize=50;horizontalStack=0;rounded=1;fontSize=14;fontStyle=0;strokeWidth=2;resizeParent=0;resizeLast=1;shadow=0;dashed=0;align=center;arcSize=4;whiteSpace=wrap;html=1;fillColor=#33FF33;" vertex="1" parent="1">
          <mxGeometry x="-424" y="300" width="174" height="165" as="geometry" />
        </mxCell>
        <mxCell id="4mtBm1pnFT7cWW-_lhDn-17" value="* Название сценария&lt;br&gt;&amp;nbsp; День недели сценария&lt;br&gt;&amp;nbsp; Время сценария&lt;br&gt;&amp;nbsp; Статус сценария&lt;br&gt;&amp;nbsp; Время старта&lt;br&gt;&amp;nbsp; Время окончания&lt;br&gt;&amp;nbsp; Статус всех устройств" style="align=left;strokeColor=none;fillColor=none;spacingLeft=4;fontSize=12;verticalAlign=top;resizable=0;rotatable=0;part=1;html=1;" vertex="1" parent="4mtBm1pnFT7cWW-_lhDn-16">
          <mxGeometry y="50" width="174" height="115" as="geometry" />
        </mxCell>
        <mxCell id="4mtBm1pnFT7cWW-_lhDn-20" value="" style="edgeStyle=entityRelationEdgeStyle;fontSize=12;html=1;endArrow=ERzeroToMany;startArrow=ERoneToMany;rounded=0;exitX=1;exitY=0.5;exitDx=0;exitDy=0;entryX=0;entryY=0.25;entryDx=0;entryDy=0;endFill=0;" edge="1" parent="1" source="4mtBm1pnFT7cWW-_lhDn-14" target="4mtBm1pnFT7cWW-_lhDn-17">
          <mxGeometry width="100" height="100" relative="1" as="geometry">
            <mxPoint x="-284" y="210" as="sourcePoint" />
            <mxPoint x="-184" y="110" as="targetPoint" />
          </mxGeometry>
        </mxCell>
        <mxCell id="97YN6V64Y0gJDFzc9_jx-89" value="Имеет" style="edgeLabel;html=1;align=center;verticalAlign=middle;resizable=0;points=[];" connectable="0" vertex="1" parent="4mtBm1pnFT7cWW-_lhDn-20">
          <mxGeometry x="0.0525" y="-1" relative="1" as="geometry">
            <mxPoint as="offset" />
          </mxGeometry>
        </mxCell>
        <mxCell id="4mtBm1pnFT7cWW-_lhDn-75" value="День недели в сценарии" style="swimlane;childLayout=stackLayout;horizontal=1;startSize=50;horizontalStack=0;rounded=1;fontSize=14;fontStyle=0;strokeWidth=2;resizeParent=0;resizeLast=1;shadow=0;dashed=0;align=center;arcSize=4;whiteSpace=wrap;html=1;fillColor=#33FF33;" vertex="1" parent="1">
          <mxGeometry x="930" y="1925" width="160" height="145" as="geometry" />
        </mxCell>
        <mxCell id="4mtBm1pnFT7cWW-_lhDn-105" value="* Название сценария&lt;br&gt;* День недели&lt;br&gt;&lt;br&gt;&lt;br&gt;&lt;br&gt;&lt;br&gt;" style="text;html=1;align=left;verticalAlign=middle;resizable=0;points=[];autosize=1;strokeColor=none;fillColor=none;" vertex="1" parent="4mtBm1pnFT7cWW-_lhDn-75">
          <mxGeometry y="50" width="160" height="95" as="geometry" />
        </mxCell>
        <mxCell id="4mtBm1pnFT7cWW-_lhDn-78" value="День недели" style="swimlane;childLayout=stackLayout;horizontal=1;startSize=50;horizontalStack=0;rounded=1;fontSize=14;fontStyle=0;strokeWidth=2;resizeParent=0;resizeLast=1;shadow=0;dashed=0;align=center;arcSize=4;whiteSpace=wrap;html=1;fillColor=#33FF33;" vertex="1" parent="1">
          <mxGeometry x="650" y="2060" width="160" height="120" as="geometry" />
        </mxCell>
        <mxCell id="4mtBm1pnFT7cWW-_lhDn-79" value="* День недели" style="align=left;strokeColor=none;fillColor=none;spacingLeft=4;fontSize=12;verticalAlign=top;resizable=0;rotatable=0;part=1;html=1;" vertex="1" parent="4mtBm1pnFT7cWW-_lhDn-78">
          <mxGeometry y="50" width="160" height="70" as="geometry" />
        </mxCell>
        <mxCell id="4mtBm1pnFT7cWW-_lhDn-80" value="Пользователь" style="swimlane;childLayout=stackLayout;horizontal=1;startSize=50;horizontalStack=0;rounded=1;fontSize=14;fontStyle=0;strokeWidth=2;resizeParent=0;resizeLast=1;shadow=0;dashed=0;align=center;arcSize=4;whiteSpace=wrap;html=1;fillColor=#33FF33;" vertex="1" parent="1">
          <mxGeometry x="630" y="1280" width="160" height="130" as="geometry" />
        </mxCell>
        <mxCell id="4mtBm1pnFT7cWW-_lhDn-81" value="* Электронный адрес&lt;br&gt;&amp;nbsp; Имя&lt;br&gt;&amp;nbsp; Номер телефона" style="align=left;strokeColor=none;fillColor=none;spacingLeft=4;fontSize=12;verticalAlign=top;resizable=0;rotatable=0;part=1;html=1;" vertex="1" parent="4mtBm1pnFT7cWW-_lhDn-80">
          <mxGeometry y="50" width="160" height="80" as="geometry" />
        </mxCell>
        <mxCell id="4mtBm1pnFT7cWW-_lhDn-82" value="Дом" style="swimlane;childLayout=stackLayout;horizontal=1;startSize=50;horizontalStack=0;rounded=1;fontSize=14;fontStyle=0;strokeWidth=2;resizeParent=0;resizeLast=1;shadow=0;dashed=0;align=center;arcSize=4;whiteSpace=wrap;html=1;fillColor=#33FF33;verticalAlign=middle;" vertex="1" parent="1">
          <mxGeometry x="1190" y="1275" width="180" height="135" as="geometry" />
        </mxCell>
        <mxCell id="4mtBm1pnFT7cWW-_lhDn-83" value="* Уникальный номер дома&lt;br style=&quot;border-color: var(--border-color);&quot;&gt;&amp;nbsp; Название дома&amp;nbsp;&amp;nbsp;&lt;br style=&quot;border-color: var(--border-color);&quot;&gt;&lt;br style=&quot;border-color: var(--border-color);&quot;&gt;&lt;br&gt;" style="text;html=1;align=left;verticalAlign=middle;resizable=0;points=[];autosize=1;strokeColor=none;fillColor=none;" vertex="1" parent="4mtBm1pnFT7cWW-_lhDn-82">
          <mxGeometry y="50" width="180" height="85" as="geometry" />
        </mxCell>
        <mxCell id="4mtBm1pnFT7cWW-_lhDn-84" value="" style="edgeStyle=entityRelationEdgeStyle;fontSize=12;html=1;endArrow=ERoneToMany;startArrow=ERmandOne;rounded=0;entryX=1;entryY=0.5;entryDx=0;entryDy=0;exitX=0;exitY=0.5;exitDx=0;exitDy=0;startFill=0;" edge="1" parent="1" source="4mtBm1pnFT7cWW-_lhDn-82" target="4mtBm1pnFT7cWW-_lhDn-94">
          <mxGeometry width="100" height="100" relative="1" as="geometry">
            <mxPoint x="1330" y="1645" as="sourcePoint" />
            <mxPoint x="1430" y="1545" as="targetPoint" />
          </mxGeometry>
        </mxCell>
        <mxCell id="97YN6V64Y0gJDFzc9_jx-69" value="Имеет" style="edgeLabel;html=1;align=center;verticalAlign=middle;resizable=0;points=[];" connectable="0" vertex="1" parent="4mtBm1pnFT7cWW-_lhDn-84">
          <mxGeometry x="-0.0351" y="3" relative="1" as="geometry">
            <mxPoint as="offset" />
          </mxGeometry>
        </mxCell>
        <mxCell id="4mtBm1pnFT7cWW-_lhDn-85" value="" style="edgeStyle=entityRelationEdgeStyle;fontSize=12;html=1;endArrow=ERmandOne;startArrow=ERoneToMany;rounded=0;entryX=1;entryY=0.5;entryDx=0;entryDy=0;exitX=-0.006;exitY=0.129;exitDx=0;exitDy=0;startFill=0;endFill=0;exitPerimeter=0;" edge="1" parent="1" source="4mtBm1pnFT7cWW-_lhDn-87" target="4mtBm1pnFT7cWW-_lhDn-82">
          <mxGeometry width="100" height="100" relative="1" as="geometry">
            <mxPoint x="1530" y="1695" as="sourcePoint" />
            <mxPoint x="1630" y="1595" as="targetPoint" />
          </mxGeometry>
        </mxCell>
        <mxCell id="97YN6V64Y0gJDFzc9_jx-70" value="Имеет" style="edgeLabel;html=1;align=center;verticalAlign=middle;resizable=0;points=[];" connectable="0" vertex="1" parent="4mtBm1pnFT7cWW-_lhDn-85">
          <mxGeometry x="0.0446" y="1" relative="1" as="geometry">
            <mxPoint as="offset" />
          </mxGeometry>
        </mxCell>
        <mxCell id="4mtBm1pnFT7cWW-_lhDn-86" value="Комната" style="swimlane;childLayout=stackLayout;horizontal=1;startSize=50;horizontalStack=0;rounded=1;fontSize=14;fontStyle=0;strokeWidth=2;resizeParent=0;resizeLast=1;shadow=0;dashed=0;align=center;arcSize=4;whiteSpace=wrap;html=1;fillColor=#33FF33;" vertex="1" parent="1">
          <mxGeometry x="1490" y="1430" width="160" height="120" as="geometry" />
        </mxCell>
        <mxCell id="4mtBm1pnFT7cWW-_lhDn-87" value="* Название комнаты&lt;br&gt;&amp;nbsp; Привязанные устройства&lt;br&gt;&amp;nbsp; Статус комнаты" style="align=left;strokeColor=none;fillColor=none;spacingLeft=4;fontSize=12;verticalAlign=top;resizable=0;rotatable=0;part=1;html=1;" vertex="1" parent="4mtBm1pnFT7cWW-_lhDn-86">
          <mxGeometry y="50" width="160" height="70" as="geometry" />
        </mxCell>
        <mxCell id="4mtBm1pnFT7cWW-_lhDn-88" value="Устройство" style="swimlane;childLayout=stackLayout;horizontal=1;startSize=50;horizontalStack=0;rounded=1;fontSize=14;fontStyle=0;strokeWidth=2;resizeParent=0;resizeLast=1;shadow=0;dashed=0;align=center;arcSize=4;whiteSpace=wrap;html=1;fillColor=#33FF33;" vertex="1" parent="1">
          <mxGeometry x="910" y="1540" width="156" height="135" as="geometry" />
        </mxCell>
        <mxCell id="4mtBm1pnFT7cWW-_lhDn-89" value="* Номер устройства&lt;br style=&quot;border-color: var(--border-color);&quot;&gt;&amp;nbsp; Статус устройства&lt;br style=&quot;border-color: var(--border-color);&quot;&gt;&amp;nbsp; Цвет&lt;br style=&quot;border-color: var(--border-color);&quot;&gt;&amp;nbsp; Яркость&lt;br style=&quot;border-color: var(--border-color);&quot;&gt;&amp;nbsp; Энергосбережение" style="align=left;strokeColor=none;fillColor=none;spacingLeft=4;fontSize=12;verticalAlign=top;resizable=0;rotatable=0;part=1;html=1;" vertex="1" parent="4mtBm1pnFT7cWW-_lhDn-88">
          <mxGeometry y="50" width="156" height="85" as="geometry" />
        </mxCell>
        <mxCell id="4mtBm1pnFT7cWW-_lhDn-90" value="" style="edgeStyle=entityRelationEdgeStyle;fontSize=12;html=1;endArrow=ERmandOne;startArrow=ERoneToMany;rounded=0;exitX=1;exitY=0;exitDx=0;exitDy=0;startFill=0;entryX=0;entryY=0.576;entryDx=0;entryDy=0;entryPerimeter=0;endFill=0;" edge="1" parent="1" source="4mtBm1pnFT7cWW-_lhDn-89" target="4mtBm1pnFT7cWW-_lhDn-83">
          <mxGeometry width="100" height="100" relative="1" as="geometry">
            <mxPoint x="1410" y="1810" as="sourcePoint" />
            <mxPoint x="1120" y="1360" as="targetPoint" />
          </mxGeometry>
        </mxCell>
        <mxCell id="97YN6V64Y0gJDFzc9_jx-73" value="Привязано" style="edgeLabel;html=1;align=center;verticalAlign=middle;resizable=0;points=[];" connectable="0" vertex="1" parent="4mtBm1pnFT7cWW-_lhDn-90">
          <mxGeometry x="0.1634" y="-2" relative="1" as="geometry">
            <mxPoint as="offset" />
          </mxGeometry>
        </mxCell>
        <mxCell id="4mtBm1pnFT7cWW-_lhDn-91" value="Сценарий" style="swimlane;childLayout=stackLayout;horizontal=1;startSize=50;horizontalStack=0;rounded=1;fontSize=14;fontStyle=0;strokeWidth=2;resizeParent=0;resizeLast=1;shadow=0;dashed=0;align=center;arcSize=4;whiteSpace=wrap;html=1;fillColor=#33FF33;" vertex="1" parent="1">
          <mxGeometry x="1210" y="1830" width="170" height="165" as="geometry" />
        </mxCell>
        <mxCell id="4mtBm1pnFT7cWW-_lhDn-92" value="* Название сценария&lt;br style=&quot;border-color: var(--border-color);&quot;&gt;&amp;nbsp; Время сценария&lt;br style=&quot;border-color: var(--border-color);&quot;&gt;&amp;nbsp; Статус сценария&lt;br style=&quot;border-color: var(--border-color);&quot;&gt;&amp;nbsp; Время старта&lt;br style=&quot;border-color: var(--border-color);&quot;&gt;&amp;nbsp; Время окончания&lt;br style=&quot;border-color: var(--border-color);&quot;&gt;&amp;nbsp; Статус всех устройств" style="align=left;strokeColor=none;fillColor=none;spacingLeft=4;fontSize=12;verticalAlign=top;resizable=0;rotatable=0;part=1;html=1;" vertex="1" parent="4mtBm1pnFT7cWW-_lhDn-91">
          <mxGeometry y="50" width="170" height="115" as="geometry" />
        </mxCell>
        <mxCell id="4mtBm1pnFT7cWW-_lhDn-93" value="" style="edgeStyle=entityRelationEdgeStyle;fontSize=12;html=1;endArrow=ERoneToMany;startArrow=ERmandOne;rounded=0;endFill=0;entryX=0;entryY=0.5;entryDx=0;entryDy=0;exitX=1.006;exitY=0.452;exitDx=0;exitDy=0;exitPerimeter=0;startFill=0;" edge="1" parent="1" source="4mtBm1pnFT7cWW-_lhDn-92" target="97YN6V64Y0gJDFzc9_jx-4">
          <mxGeometry width="100" height="100" relative="1" as="geometry">
            <mxPoint x="750" y="1870" as="sourcePoint" />
            <mxPoint x="970" y="1860" as="targetPoint" />
          </mxGeometry>
        </mxCell>
        <mxCell id="97YN6V64Y0gJDFzc9_jx-76" value="Имеет" style="edgeLabel;html=1;align=center;verticalAlign=middle;resizable=0;points=[];" connectable="0" vertex="1" parent="4mtBm1pnFT7cWW-_lhDn-93">
          <mxGeometry x="0.0862" y="1" relative="1" as="geometry">
            <mxPoint as="offset" />
          </mxGeometry>
        </mxCell>
        <mxCell id="4mtBm1pnFT7cWW-_lhDn-94" value="Дом пользователя" style="swimlane;childLayout=stackLayout;horizontal=1;startSize=50;horizontalStack=0;rounded=1;fontSize=14;fontStyle=0;strokeWidth=2;resizeParent=0;resizeLast=1;shadow=0;dashed=0;align=center;arcSize=4;whiteSpace=wrap;html=1;fillColor=#33FF33;" vertex="1" parent="1">
          <mxGeometry x="892" y="1130" width="180" height="140" as="geometry" />
        </mxCell>
        <mxCell id="4mtBm1pnFT7cWW-_lhDn-95" value="* Электронный адрес&lt;br&gt;* Уникальный номер дома&lt;br style=&quot;border-color: var(--border-color);&quot;&gt;&amp;nbsp; Статус привязки учётной&lt;br style=&quot;border-color: var(--border-color);&quot;&gt;&amp;nbsp;записи&lt;br style=&quot;border-color: var(--border-color);&quot;&gt;&lt;br&gt;" style="text;html=1;align=left;verticalAlign=middle;resizable=0;points=[];autosize=1;strokeColor=none;fillColor=none;" vertex="1" parent="4mtBm1pnFT7cWW-_lhDn-94">
          <mxGeometry y="50" width="180" height="90" as="geometry" />
        </mxCell>
        <mxCell id="4mtBm1pnFT7cWW-_lhDn-96" value="" style="edgeStyle=entityRelationEdgeStyle;fontSize=12;html=1;endArrow=ERoneToMany;startArrow=ERmandOne;rounded=0;entryX=0;entryY=0.5;entryDx=0;entryDy=0;exitX=1;exitY=0.5;exitDx=0;exitDy=0;startFill=0;" edge="1" parent="1" source="4mtBm1pnFT7cWW-_lhDn-81" target="4mtBm1pnFT7cWW-_lhDn-94">
          <mxGeometry width="100" height="100" relative="1" as="geometry">
            <mxPoint x="1220" y="1348" as="sourcePoint" />
            <mxPoint x="1110" y="1220" as="targetPoint" />
          </mxGeometry>
        </mxCell>
        <mxCell id="97YN6V64Y0gJDFzc9_jx-68" value="Создаёт" style="edgeLabel;html=1;align=center;verticalAlign=middle;resizable=0;points=[];" connectable="0" vertex="1" parent="4mtBm1pnFT7cWW-_lhDn-96">
          <mxGeometry x="-0.0735" y="-3" relative="1" as="geometry">
            <mxPoint as="offset" />
          </mxGeometry>
        </mxCell>
        <mxCell id="4mtBm1pnFT7cWW-_lhDn-97" value="Тип устройства" style="swimlane;childLayout=stackLayout;horizontal=1;startSize=50;horizontalStack=0;rounded=1;fontSize=14;fontStyle=0;strokeWidth=2;resizeParent=0;resizeLast=1;shadow=0;dashed=0;align=center;arcSize=4;whiteSpace=wrap;html=1;fillColor=#33FF33;" vertex="1" parent="1">
          <mxGeometry x="630" y="1670" width="160" height="120" as="geometry" />
        </mxCell>
        <mxCell id="4mtBm1pnFT7cWW-_lhDn-98" value="* Тип устройства&lt;br&gt;&amp;nbsp; &amp;nbsp;Лампочка&lt;br&gt;&amp;nbsp; &amp;nbsp;Розетка" style="align=left;strokeColor=none;fillColor=none;spacingLeft=4;fontSize=12;verticalAlign=top;resizable=0;rotatable=0;part=1;html=1;" vertex="1" parent="4mtBm1pnFT7cWW-_lhDn-97">
          <mxGeometry y="50" width="160" height="70" as="geometry" />
        </mxCell>
        <mxCell id="4mtBm1pnFT7cWW-_lhDn-99" value="" style="edgeStyle=entityRelationEdgeStyle;fontSize=12;html=1;endArrow=ERoneToMany;endFill=0;startArrow=ERmandOne;rounded=0;exitX=0.997;exitY=0.42;exitDx=0;exitDy=0;exitPerimeter=0;entryX=0.002;entryY=0.411;entryDx=0;entryDy=0;entryPerimeter=0;startFill=0;" edge="1" parent="1" source="4mtBm1pnFT7cWW-_lhDn-98" target="4mtBm1pnFT7cWW-_lhDn-89">
          <mxGeometry width="100" height="100" relative="1" as="geometry">
            <mxPoint x="960" y="1755" as="sourcePoint" />
            <mxPoint x="1060" y="1655" as="targetPoint" />
          </mxGeometry>
        </mxCell>
        <mxCell id="97YN6V64Y0gJDFzc9_jx-74" value="Имеет" style="edgeLabel;html=1;align=center;verticalAlign=middle;resizable=0;points=[];" connectable="0" vertex="1" parent="4mtBm1pnFT7cWW-_lhDn-99">
          <mxGeometry x="0.1654" relative="1" as="geometry">
            <mxPoint as="offset" />
          </mxGeometry>
        </mxCell>
        <mxCell id="4mtBm1pnFT7cWW-_lhDn-100" value="Тип комнаты" style="swimlane;childLayout=stackLayout;horizontal=1;startSize=50;horizontalStack=0;rounded=1;fontSize=14;fontStyle=0;strokeWidth=2;resizeParent=0;resizeLast=1;shadow=0;dashed=0;align=center;arcSize=4;whiteSpace=wrap;html=1;fillColor=#33FF33;" vertex="1" parent="1">
          <mxGeometry x="1800" y="1300" width="180" height="159" as="geometry" />
        </mxCell>
        <mxCell id="4mtBm1pnFT7cWW-_lhDn-101" value="* Тип комнаты&lt;br&gt;&amp;nbsp; Кухня&lt;br&gt;&amp;nbsp; Спальня&lt;br&gt;&amp;nbsp; Ванна&lt;br&gt;&amp;nbsp; Гостевая&lt;br&gt;&amp;nbsp; Проходная&lt;br&gt;&amp;nbsp; Зал" style="text;html=1;align=left;verticalAlign=middle;resizable=0;points=[];autosize=1;strokeColor=none;fillColor=none;" vertex="1" parent="4mtBm1pnFT7cWW-_lhDn-100">
          <mxGeometry y="50" width="180" height="109" as="geometry" />
        </mxCell>
        <mxCell id="4mtBm1pnFT7cWW-_lhDn-102" value="" style="edgeStyle=entityRelationEdgeStyle;fontSize=12;html=1;endArrow=ERmandOne;startArrow=ERoneToMany;rounded=0;endFill=0;entryX=-0.012;entryY=0.38;entryDx=0;entryDy=0;entryPerimeter=0;exitX=1.013;exitY=0.1;exitDx=0;exitDy=0;exitPerimeter=0;startFill=0;" edge="1" parent="1" source="4mtBm1pnFT7cWW-_lhDn-87" target="4mtBm1pnFT7cWW-_lhDn-101">
          <mxGeometry width="100" height="100" relative="1" as="geometry">
            <mxPoint x="1680" y="1530" as="sourcePoint" />
            <mxPoint x="1790" y="1150" as="targetPoint" />
          </mxGeometry>
        </mxCell>
        <mxCell id="97YN6V64Y0gJDFzc9_jx-71" value="Имеет" style="edgeLabel;html=1;align=center;verticalAlign=middle;resizable=0;points=[];" connectable="0" vertex="1" parent="4mtBm1pnFT7cWW-_lhDn-102">
          <mxGeometry x="0.0025" y="-3" relative="1" as="geometry">
            <mxPoint as="offset" />
          </mxGeometry>
        </mxCell>
        <mxCell id="4mtBm1pnFT7cWW-_lhDn-103" value="" style="edgeStyle=entityRelationEdgeStyle;fontSize=12;html=1;endArrow=ERoneToMany;startArrow=ERmandOne;rounded=0;exitX=0;exitY=0.5;exitDx=0;exitDy=0;entryX=1;entryY=0.5;entryDx=0;entryDy=0;startFill=0;" edge="1" parent="1" source="4mtBm1pnFT7cWW-_lhDn-92" target="4mtBm1pnFT7cWW-_lhDn-75">
          <mxGeometry width="100" height="100" relative="1" as="geometry">
            <mxPoint x="1100" y="2115" as="sourcePoint" />
            <mxPoint x="1180" y="2015" as="targetPoint" />
          </mxGeometry>
        </mxCell>
        <mxCell id="97YN6V64Y0gJDFzc9_jx-77" value="Имеет" style="edgeLabel;html=1;align=center;verticalAlign=middle;resizable=0;points=[];" connectable="0" vertex="1" parent="4mtBm1pnFT7cWW-_lhDn-103">
          <mxGeometry x="-0.2782" y="4" relative="1" as="geometry">
            <mxPoint as="offset" />
          </mxGeometry>
        </mxCell>
        <mxCell id="4mtBm1pnFT7cWW-_lhDn-104" value="" style="edgeStyle=entityRelationEdgeStyle;fontSize=12;html=1;endArrow=ERoneToMany;startArrow=ERmandOne;rounded=0;exitX=1;exitY=0.25;exitDx=0;exitDy=0;entryX=0;entryY=0.5;entryDx=0;entryDy=0;endFill=0;" edge="1" parent="1" source="4mtBm1pnFT7cWW-_lhDn-79" target="4mtBm1pnFT7cWW-_lhDn-75">
          <mxGeometry width="100" height="100" relative="1" as="geometry">
            <mxPoint x="980" y="2010" as="sourcePoint" />
            <mxPoint x="840" y="2010" as="targetPoint" />
          </mxGeometry>
        </mxCell>
        <mxCell id="97YN6V64Y0gJDFzc9_jx-78" value="Имеет" style="edgeLabel;html=1;align=center;verticalAlign=middle;resizable=0;points=[];" connectable="0" vertex="1" parent="4mtBm1pnFT7cWW-_lhDn-104">
          <mxGeometry x="0.0258" y="-2" relative="1" as="geometry">
            <mxPoint as="offset" />
          </mxGeometry>
        </mxCell>
        <mxCell id="97YN6V64Y0gJDFzc9_jx-1" value="" style="edgeStyle=entityRelationEdgeStyle;fontSize=12;html=1;endArrow=ERmandOne;startArrow=ERzeroToMany;rounded=0;exitX=1.013;exitY=0.4;exitDx=0;exitDy=0;entryX=0;entryY=0.5;entryDx=0;entryDy=0;endFill=0;exitPerimeter=0;" edge="1" parent="1" source="4mtBm1pnFT7cWW-_lhDn-89" target="4mtBm1pnFT7cWW-_lhDn-87">
          <mxGeometry width="100" height="100" relative="1" as="geometry">
            <mxPoint x="1300" y="1680" as="sourcePoint" />
            <mxPoint x="1383" y="1520" as="targetPoint" />
          </mxGeometry>
        </mxCell>
        <mxCell id="97YN6V64Y0gJDFzc9_jx-72" value="Имеет" style="edgeLabel;html=1;align=center;verticalAlign=middle;resizable=0;points=[];" connectable="0" vertex="1" parent="97YN6V64Y0gJDFzc9_jx-1">
          <mxGeometry x="0.1756" relative="1" as="geometry">
            <mxPoint as="offset" />
          </mxGeometry>
        </mxCell>
        <mxCell id="97YN6V64Y0gJDFzc9_jx-3" value="Устройство в сценарии" style="swimlane;childLayout=stackLayout;horizontal=1;startSize=50;horizontalStack=0;rounded=1;fontSize=14;fontStyle=0;strokeWidth=2;resizeParent=0;resizeLast=1;shadow=0;dashed=0;align=center;arcSize=4;whiteSpace=wrap;html=1;fillColor=#33FF33;" vertex="1" parent="1">
          <mxGeometry x="1485" y="1660" width="170" height="165" as="geometry" />
        </mxCell>
        <mxCell id="97YN6V64Y0gJDFzc9_jx-4" value="* Номер устройства&lt;br&gt;* Название сценария" style="align=left;strokeColor=none;fillColor=none;spacingLeft=4;fontSize=12;verticalAlign=top;resizable=0;rotatable=0;part=1;html=1;" vertex="1" parent="97YN6V64Y0gJDFzc9_jx-3">
          <mxGeometry y="50" width="170" height="115" as="geometry" />
        </mxCell>
        <mxCell id="97YN6V64Y0gJDFzc9_jx-6" value="" style="edgeStyle=entityRelationEdgeStyle;fontSize=12;html=1;endArrow=ERoneToMany;startArrow=ERmandOne;rounded=0;exitX=1;exitY=0.671;exitDx=0;exitDy=0;entryX=-0.012;entryY=0.096;entryDx=0;entryDy=0;endFill=0;exitPerimeter=0;entryPerimeter=0;startFill=0;" edge="1" parent="1" source="4mtBm1pnFT7cWW-_lhDn-89" target="97YN6V64Y0gJDFzc9_jx-4">
          <mxGeometry width="100" height="100" relative="1" as="geometry">
            <mxPoint x="1078" y="1634" as="sourcePoint" />
            <mxPoint x="1500" y="1525" as="targetPoint" />
            <Array as="points">
              <mxPoint x="1280" y="1760" />
              <mxPoint x="1270" y="1760" />
            </Array>
          </mxGeometry>
        </mxCell>
        <mxCell id="97YN6V64Y0gJDFzc9_jx-75" value="Работает" style="edgeLabel;html=1;align=center;verticalAlign=middle;resizable=0;points=[];" connectable="0" vertex="1" parent="97YN6V64Y0gJDFzc9_jx-6">
          <mxGeometry x="-0.1575" y="1" relative="1" as="geometry">
            <mxPoint as="offset" />
          </mxGeometry>
        </mxCell>
        <mxCell id="97YN6V64Y0gJDFzc9_jx-12" value="Пользователь" style="swimlane;childLayout=stackLayout;horizontal=1;startSize=50;horizontalStack=0;rounded=1;fontSize=14;fontStyle=0;strokeWidth=2;resizeParent=0;resizeLast=1;shadow=0;dashed=0;align=center;arcSize=4;whiteSpace=wrap;html=1;fillColor=#33FF33;" vertex="1" parent="1">
          <mxGeometry x="590" y="-70" width="160" height="130" as="geometry" />
        </mxCell>
        <mxCell id="97YN6V64Y0gJDFzc9_jx-13" value="* Электронный адрес&lt;br&gt;&amp;nbsp; Имя&lt;br&gt;&amp;nbsp; Номер телефона" style="align=left;strokeColor=none;fillColor=none;spacingLeft=4;fontSize=12;verticalAlign=top;resizable=0;rotatable=0;part=1;html=1;" vertex="1" parent="97YN6V64Y0gJDFzc9_jx-12">
          <mxGeometry y="50" width="160" height="80" as="geometry" />
        </mxCell>
        <mxCell id="97YN6V64Y0gJDFzc9_jx-14" value="Дом" style="swimlane;childLayout=stackLayout;horizontal=1;startSize=50;horizontalStack=0;rounded=1;fontSize=14;fontStyle=0;strokeWidth=2;resizeParent=0;resizeLast=1;shadow=0;dashed=0;align=center;arcSize=4;whiteSpace=wrap;html=1;fillColor=#33FF33;verticalAlign=middle;" vertex="1" parent="1">
          <mxGeometry x="1150" y="-75" width="180" height="135" as="geometry" />
        </mxCell>
        <mxCell id="97YN6V64Y0gJDFzc9_jx-15" value="* Уникальный номер дома&lt;br style=&quot;border-color: var(--border-color);&quot;&gt;&amp;nbsp; Название дома&amp;nbsp;&amp;nbsp;&lt;br style=&quot;border-color: var(--border-color);&quot;&gt;&lt;br&gt;&lt;br&gt;" style="text;html=1;align=left;verticalAlign=middle;resizable=0;points=[];autosize=1;strokeColor=none;fillColor=none;" vertex="1" parent="97YN6V64Y0gJDFzc9_jx-14">
          <mxGeometry y="50" width="180" height="85" as="geometry" />
        </mxCell>
        <mxCell id="97YN6V64Y0gJDFzc9_jx-16" value="Имеет" style="edgeStyle=entityRelationEdgeStyle;fontSize=12;html=1;endArrow=ERoneToMany;startArrow=ERmandOne;rounded=0;entryX=1;entryY=0.5;entryDx=0;entryDy=0;exitX=0;exitY=0.5;exitDx=0;exitDy=0;startFill=0;" edge="1" parent="1" source="97YN6V64Y0gJDFzc9_jx-14" target="97YN6V64Y0gJDFzc9_jx-26">
          <mxGeometry width="100" height="100" relative="1" as="geometry">
            <mxPoint x="1290" y="295" as="sourcePoint" />
            <mxPoint x="1390" y="195" as="targetPoint" />
          </mxGeometry>
        </mxCell>
        <mxCell id="97YN6V64Y0gJDFzc9_jx-17" value="Имеет" style="edgeStyle=entityRelationEdgeStyle;fontSize=12;html=1;endArrow=ERmandOne;startArrow=ERoneToMany;rounded=0;entryX=1;entryY=0.5;entryDx=0;entryDy=0;exitX=-0.006;exitY=0.129;exitDx=0;exitDy=0;startFill=0;endFill=0;exitPerimeter=0;" edge="1" parent="1" source="97YN6V64Y0gJDFzc9_jx-19" target="97YN6V64Y0gJDFzc9_jx-14">
          <mxGeometry width="100" height="100" relative="1" as="geometry">
            <mxPoint x="1490" y="345" as="sourcePoint" />
            <mxPoint x="1590" y="245" as="targetPoint" />
          </mxGeometry>
        </mxCell>
        <mxCell id="97YN6V64Y0gJDFzc9_jx-18" value="Комната" style="swimlane;childLayout=stackLayout;horizontal=1;startSize=50;horizontalStack=0;rounded=1;fontSize=14;fontStyle=0;strokeWidth=2;resizeParent=0;resizeLast=1;shadow=0;dashed=0;align=center;arcSize=4;whiteSpace=wrap;html=1;fillColor=#33FF33;" vertex="1" parent="1">
          <mxGeometry x="1450" y="80" width="160" height="120" as="geometry" />
        </mxCell>
        <mxCell id="97YN6V64Y0gJDFzc9_jx-19" value="* Название комнаты&lt;br&gt;&amp;nbsp; Привязанные устройства&lt;br&gt;&amp;nbsp; Статус комнаты" style="align=left;strokeColor=none;fillColor=none;spacingLeft=4;fontSize=12;verticalAlign=top;resizable=0;rotatable=0;part=1;html=1;" vertex="1" parent="97YN6V64Y0gJDFzc9_jx-18">
          <mxGeometry y="50" width="160" height="70" as="geometry" />
        </mxCell>
        <mxCell id="97YN6V64Y0gJDFzc9_jx-20" value="Устройство" style="swimlane;childLayout=stackLayout;horizontal=1;startSize=50;horizontalStack=0;rounded=1;fontSize=14;fontStyle=0;strokeWidth=2;resizeParent=0;resizeLast=1;shadow=0;dashed=0;align=center;arcSize=4;whiteSpace=wrap;html=1;fillColor=#33FF33;" vertex="1" parent="1">
          <mxGeometry x="870" y="190" width="156" height="135" as="geometry" />
        </mxCell>
        <mxCell id="97YN6V64Y0gJDFzc9_jx-21" value="* Номер устройства&lt;br style=&quot;border-color: var(--border-color);&quot;&gt;&amp;nbsp; Статус устройства&lt;br style=&quot;border-color: var(--border-color);&quot;&gt;&amp;nbsp; Цвет&lt;br style=&quot;border-color: var(--border-color);&quot;&gt;&amp;nbsp; Яркость&lt;br style=&quot;border-color: var(--border-color);&quot;&gt;&amp;nbsp; Энергосбережение" style="align=left;strokeColor=none;fillColor=none;spacingLeft=4;fontSize=12;verticalAlign=top;resizable=0;rotatable=0;part=1;html=1;" vertex="1" parent="97YN6V64Y0gJDFzc9_jx-20">
          <mxGeometry y="50" width="156" height="85" as="geometry" />
        </mxCell>
        <mxCell id="97YN6V64Y0gJDFzc9_jx-22" value="Привязано" style="edgeStyle=entityRelationEdgeStyle;fontSize=12;html=1;endArrow=ERmandOne;startArrow=ERoneToMany;rounded=0;exitX=1;exitY=0;exitDx=0;exitDy=0;startFill=0;entryX=0;entryY=0.576;entryDx=0;entryDy=0;entryPerimeter=0;endFill=0;" edge="1" parent="1" source="97YN6V64Y0gJDFzc9_jx-21" target="97YN6V64Y0gJDFzc9_jx-15">
          <mxGeometry width="100" height="100" relative="1" as="geometry">
            <mxPoint x="1370" y="460" as="sourcePoint" />
            <mxPoint x="1080" y="10" as="targetPoint" />
          </mxGeometry>
        </mxCell>
        <mxCell id="97YN6V64Y0gJDFzc9_jx-23" value="Сценарий" style="swimlane;childLayout=stackLayout;horizontal=1;startSize=50;horizontalStack=0;rounded=1;fontSize=14;fontStyle=0;strokeWidth=2;resizeParent=0;resizeLast=1;shadow=0;dashed=0;align=center;arcSize=4;whiteSpace=wrap;html=1;fillColor=#33FF33;" vertex="1" parent="1">
          <mxGeometry x="1170" y="480" width="170" height="165" as="geometry" />
        </mxCell>
        <mxCell id="97YN6V64Y0gJDFzc9_jx-24" value="* Название сценария&lt;br style=&quot;border-color: var(--border-color);&quot;&gt;&amp;nbsp; Время сценария&lt;br style=&quot;border-color: var(--border-color);&quot;&gt;&amp;nbsp; Статус сценария&lt;br style=&quot;border-color: var(--border-color);&quot;&gt;&amp;nbsp; Время старта&lt;br style=&quot;border-color: var(--border-color);&quot;&gt;&amp;nbsp; Время окончания&lt;br style=&quot;border-color: var(--border-color);&quot;&gt;&amp;nbsp; Статус всех устройств" style="align=left;strokeColor=none;fillColor=none;spacingLeft=4;fontSize=12;verticalAlign=top;resizable=0;rotatable=0;part=1;html=1;" vertex="1" parent="97YN6V64Y0gJDFzc9_jx-23">
          <mxGeometry y="50" width="170" height="115" as="geometry" />
        </mxCell>
        <mxCell id="97YN6V64Y0gJDFzc9_jx-25" value="" style="edgeStyle=entityRelationEdgeStyle;fontSize=12;html=1;endArrow=ERzeroToMany;startArrow=ERmandOne;rounded=0;endFill=0;entryX=0;entryY=0.5;entryDx=0;entryDy=0;exitX=1.006;exitY=0.452;exitDx=0;exitDy=0;exitPerimeter=0;startFill=0;" edge="1" parent="1" source="97YN6V64Y0gJDFzc9_jx-24" target="97YN6V64Y0gJDFzc9_jx-39">
          <mxGeometry width="100" height="100" relative="1" as="geometry">
            <mxPoint x="710" y="520" as="sourcePoint" />
            <mxPoint x="930" y="510" as="targetPoint" />
          </mxGeometry>
        </mxCell>
        <mxCell id="97YN6V64Y0gJDFzc9_jx-79" value="Имеет" style="edgeLabel;html=1;align=center;verticalAlign=middle;resizable=0;points=[];" connectable="0" vertex="1" parent="97YN6V64Y0gJDFzc9_jx-25">
          <mxGeometry x="0.122" y="1" relative="1" as="geometry">
            <mxPoint as="offset" />
          </mxGeometry>
        </mxCell>
        <mxCell id="97YN6V64Y0gJDFzc9_jx-26" value="Дом пользователя" style="swimlane;childLayout=stackLayout;horizontal=1;startSize=50;horizontalStack=0;rounded=1;fontSize=14;fontStyle=0;strokeWidth=2;resizeParent=0;resizeLast=1;shadow=0;dashed=0;align=center;arcSize=4;whiteSpace=wrap;html=1;fillColor=#33FF33;" vertex="1" parent="1">
          <mxGeometry x="852" y="-220" width="180" height="140" as="geometry" />
        </mxCell>
        <mxCell id="97YN6V64Y0gJDFzc9_jx-27" value="* Электронный адрес&lt;br&gt;* Уникальный номер дома&lt;br style=&quot;border-color: var(--border-color);&quot;&gt;&amp;nbsp; Статус привязки учётной&lt;br style=&quot;border-color: var(--border-color);&quot;&gt;&amp;nbsp;записи&lt;br style=&quot;border-color: var(--border-color);&quot;&gt;&lt;br&gt;" style="text;html=1;align=left;verticalAlign=middle;resizable=0;points=[];autosize=1;strokeColor=none;fillColor=none;" vertex="1" parent="97YN6V64Y0gJDFzc9_jx-26">
          <mxGeometry y="50" width="180" height="90" as="geometry" />
        </mxCell>
        <mxCell id="97YN6V64Y0gJDFzc9_jx-28" value="Создаёт" style="edgeStyle=entityRelationEdgeStyle;fontSize=12;html=1;endArrow=ERoneToMany;startArrow=ERmandOne;rounded=0;entryX=0;entryY=0.5;entryDx=0;entryDy=0;exitX=1;exitY=0.5;exitDx=0;exitDy=0;startFill=0;" edge="1" parent="1" source="97YN6V64Y0gJDFzc9_jx-13" target="97YN6V64Y0gJDFzc9_jx-26">
          <mxGeometry width="100" height="100" relative="1" as="geometry">
            <mxPoint x="1180" y="-2" as="sourcePoint" />
            <mxPoint x="1070" y="-130" as="targetPoint" />
          </mxGeometry>
        </mxCell>
        <mxCell id="97YN6V64Y0gJDFzc9_jx-29" value="Тип устройства" style="swimlane;childLayout=stackLayout;horizontal=1;startSize=50;horizontalStack=0;rounded=1;fontSize=14;fontStyle=0;strokeWidth=2;resizeParent=0;resizeLast=1;shadow=0;dashed=0;align=center;arcSize=4;whiteSpace=wrap;html=1;fillColor=#33FF33;" vertex="1" parent="1">
          <mxGeometry x="590" y="320" width="160" height="120" as="geometry" />
        </mxCell>
        <mxCell id="97YN6V64Y0gJDFzc9_jx-30" value="* Тип устройства&lt;br&gt;&amp;nbsp; &amp;nbsp;Лампочка&lt;br&gt;&amp;nbsp; &amp;nbsp;Розетка" style="align=left;strokeColor=none;fillColor=none;spacingLeft=4;fontSize=12;verticalAlign=top;resizable=0;rotatable=0;part=1;html=1;" vertex="1" parent="97YN6V64Y0gJDFzc9_jx-29">
          <mxGeometry y="50" width="160" height="70" as="geometry" />
        </mxCell>
        <mxCell id="97YN6V64Y0gJDFzc9_jx-31" value="Имеет" style="edgeStyle=entityRelationEdgeStyle;fontSize=12;html=1;endArrow=ERoneToMany;endFill=0;startArrow=ERmandOne;rounded=0;exitX=0.997;exitY=0.42;exitDx=0;exitDy=0;exitPerimeter=0;entryX=0.002;entryY=0.411;entryDx=0;entryDy=0;entryPerimeter=0;startFill=0;" edge="1" parent="1" source="97YN6V64Y0gJDFzc9_jx-30" target="97YN6V64Y0gJDFzc9_jx-21">
          <mxGeometry width="100" height="100" relative="1" as="geometry">
            <mxPoint x="920" y="405" as="sourcePoint" />
            <mxPoint x="1020" y="305" as="targetPoint" />
          </mxGeometry>
        </mxCell>
        <mxCell id="97YN6V64Y0gJDFzc9_jx-32" value="Тип комнаты" style="swimlane;childLayout=stackLayout;horizontal=1;startSize=50;horizontalStack=0;rounded=1;fontSize=14;fontStyle=0;strokeWidth=2;resizeParent=0;resizeLast=1;shadow=0;dashed=0;align=center;arcSize=4;whiteSpace=wrap;html=1;fillColor=#33FF33;" vertex="1" parent="1">
          <mxGeometry x="1760" y="-50" width="180" height="159" as="geometry" />
        </mxCell>
        <mxCell id="97YN6V64Y0gJDFzc9_jx-33" value="* Тип комнаты&lt;br&gt;&amp;nbsp; Кухня&lt;br&gt;&amp;nbsp; Спальня&lt;br&gt;&amp;nbsp; Ванна&lt;br&gt;&amp;nbsp; Гостевая&lt;br&gt;&amp;nbsp; Проходная&lt;br&gt;&amp;nbsp; Зал" style="text;html=1;align=left;verticalAlign=middle;resizable=0;points=[];autosize=1;strokeColor=none;fillColor=none;" vertex="1" parent="97YN6V64Y0gJDFzc9_jx-32">
          <mxGeometry y="50" width="180" height="109" as="geometry" />
        </mxCell>
        <mxCell id="97YN6V64Y0gJDFzc9_jx-34" value="Имеет" style="edgeStyle=entityRelationEdgeStyle;fontSize=12;html=1;endArrow=ERmandOne;startArrow=ERoneToMany;rounded=0;endFill=0;entryX=-0.012;entryY=0.38;entryDx=0;entryDy=0;entryPerimeter=0;exitX=1.013;exitY=0.1;exitDx=0;exitDy=0;exitPerimeter=0;startFill=0;" edge="1" parent="1" source="97YN6V64Y0gJDFzc9_jx-19" target="97YN6V64Y0gJDFzc9_jx-33">
          <mxGeometry width="100" height="100" relative="1" as="geometry">
            <mxPoint x="1640" y="180" as="sourcePoint" />
            <mxPoint x="1750" y="-200" as="targetPoint" />
          </mxGeometry>
        </mxCell>
        <mxCell id="97YN6V64Y0gJDFzc9_jx-37" value="" style="edgeStyle=entityRelationEdgeStyle;fontSize=12;html=1;endArrow=ERmandOne;startArrow=ERzeroToMany;rounded=0;exitX=1.013;exitY=0.4;exitDx=0;exitDy=0;entryX=0;entryY=0.5;entryDx=0;entryDy=0;endFill=0;exitPerimeter=0;" edge="1" parent="1" source="97YN6V64Y0gJDFzc9_jx-21" target="97YN6V64Y0gJDFzc9_jx-19">
          <mxGeometry width="100" height="100" relative="1" as="geometry">
            <mxPoint x="1260" y="330" as="sourcePoint" />
            <mxPoint x="1343" y="170" as="targetPoint" />
          </mxGeometry>
        </mxCell>
        <mxCell id="97YN6V64Y0gJDFzc9_jx-38" value="Устройство в сценарии" style="swimlane;childLayout=stackLayout;horizontal=1;startSize=50;horizontalStack=0;rounded=1;fontSize=14;fontStyle=0;strokeWidth=2;resizeParent=0;resizeLast=1;shadow=0;dashed=0;align=center;arcSize=4;whiteSpace=wrap;html=1;fillColor=#33FF33;" vertex="1" parent="1">
          <mxGeometry x="1445" y="310" width="170" height="165" as="geometry" />
        </mxCell>
        <mxCell id="97YN6V64Y0gJDFzc9_jx-39" value="* Номер устройства&lt;br&gt;* Название сценария" style="align=left;strokeColor=none;fillColor=none;spacingLeft=4;fontSize=12;verticalAlign=top;resizable=0;rotatable=0;part=1;html=1;" vertex="1" parent="97YN6V64Y0gJDFzc9_jx-38">
          <mxGeometry y="50" width="170" height="115" as="geometry" />
        </mxCell>
        <mxCell id="97YN6V64Y0gJDFzc9_jx-40" value="Работает" style="edgeStyle=entityRelationEdgeStyle;fontSize=12;html=1;endArrow=ERoneToMany;startArrow=ERmandOne;rounded=0;exitX=1;exitY=0.671;exitDx=0;exitDy=0;entryX=-0.012;entryY=0.096;entryDx=0;entryDy=0;endFill=0;exitPerimeter=0;entryPerimeter=0;startFill=0;" edge="1" parent="1" source="97YN6V64Y0gJDFzc9_jx-21" target="97YN6V64Y0gJDFzc9_jx-39">
          <mxGeometry width="100" height="100" relative="1" as="geometry">
            <mxPoint x="1038" y="284" as="sourcePoint" />
            <mxPoint x="1460" y="175" as="targetPoint" />
            <Array as="points">
              <mxPoint x="1240" y="410" />
              <mxPoint x="1230" y="410" />
            </Array>
          </mxGeometry>
        </mxCell>
        <mxCell id="97YN6V64Y0gJDFzc9_jx-41" value="Пользователь" style="swimlane;childLayout=stackLayout;horizontal=1;startSize=50;horizontalStack=0;rounded=1;fontSize=14;fontStyle=0;strokeWidth=2;resizeParent=0;resizeLast=1;shadow=0;dashed=0;align=center;arcSize=4;whiteSpace=wrap;html=1;fillColor=#33FF33;" vertex="1" parent="1">
          <mxGeometry x="-800" y="840" width="160" height="130" as="geometry" />
        </mxCell>
        <mxCell id="97YN6V64Y0gJDFzc9_jx-42" value="* Электронный адрес&lt;br&gt;&amp;nbsp; Имя&lt;br&gt;&amp;nbsp; Номер телефона" style="align=left;strokeColor=none;fillColor=none;spacingLeft=4;fontSize=12;verticalAlign=top;resizable=0;rotatable=0;part=1;html=1;" vertex="1" parent="97YN6V64Y0gJDFzc9_jx-41">
          <mxGeometry y="50" width="160" height="80" as="geometry" />
        </mxCell>
        <mxCell id="97YN6V64Y0gJDFzc9_jx-43" value="Дом" style="swimlane;childLayout=stackLayout;horizontal=1;startSize=50;horizontalStack=0;rounded=1;fontSize=14;fontStyle=0;strokeWidth=2;resizeParent=0;resizeLast=1;shadow=0;dashed=0;align=center;arcSize=4;whiteSpace=wrap;html=1;fillColor=#33FF33;verticalAlign=middle;" vertex="1" parent="1">
          <mxGeometry x="-240" y="835" width="180" height="143" as="geometry" />
        </mxCell>
        <mxCell id="97YN6V64Y0gJDFzc9_jx-44" value="* Уникальный номер дома&lt;br style=&quot;border-color: var(--border-color);&quot;&gt;&amp;nbsp; Название дома&amp;nbsp;&amp;nbsp;&lt;br style=&quot;border-color: var(--border-color);&quot;&gt;&lt;br style=&quot;border-color: var(--border-color);&quot;&gt;&lt;br&gt;&lt;br&gt;&lt;br&gt;" style="text;html=1;align=left;verticalAlign=middle;resizable=0;points=[];autosize=1;strokeColor=none;fillColor=none;" vertex="1" parent="97YN6V64Y0gJDFzc9_jx-43">
          <mxGeometry y="50" width="180" height="93" as="geometry" />
        </mxCell>
        <mxCell id="97YN6V64Y0gJDFzc9_jx-45" value="Имеет" style="edgeStyle=entityRelationEdgeStyle;fontSize=12;html=1;endArrow=ERoneToMany;startArrow=ERmandOne;rounded=0;entryX=1;entryY=0.5;entryDx=0;entryDy=0;exitX=0;exitY=0.5;exitDx=0;exitDy=0;startFill=0;" edge="1" parent="1" source="97YN6V64Y0gJDFzc9_jx-43" target="97YN6V64Y0gJDFzc9_jx-55">
          <mxGeometry width="100" height="100" relative="1" as="geometry">
            <mxPoint x="-100" y="1205" as="sourcePoint" />
            <mxPoint y="1105" as="targetPoint" />
          </mxGeometry>
        </mxCell>
        <mxCell id="97YN6V64Y0gJDFzc9_jx-46" value="" style="edgeStyle=entityRelationEdgeStyle;fontSize=12;html=1;endArrow=ERmandOne;startArrow=ERoneToMany;rounded=0;entryX=1;entryY=0.5;entryDx=0;entryDy=0;exitX=-0.006;exitY=0.129;exitDx=0;exitDy=0;startFill=0;endFill=0;exitPerimeter=0;" edge="1" parent="1" source="97YN6V64Y0gJDFzc9_jx-48" target="97YN6V64Y0gJDFzc9_jx-43">
          <mxGeometry width="100" height="100" relative="1" as="geometry">
            <mxPoint x="100" y="1255" as="sourcePoint" />
            <mxPoint x="200" y="1155" as="targetPoint" />
          </mxGeometry>
        </mxCell>
        <mxCell id="97YN6V64Y0gJDFzc9_jx-81" value="Имеет" style="edgeLabel;html=1;align=center;verticalAlign=middle;resizable=0;points=[];" connectable="0" vertex="1" parent="97YN6V64Y0gJDFzc9_jx-46">
          <mxGeometry x="0.0884" y="3" relative="1" as="geometry">
            <mxPoint x="7" y="2" as="offset" />
          </mxGeometry>
        </mxCell>
        <mxCell id="97YN6V64Y0gJDFzc9_jx-47" value="Комната" style="swimlane;childLayout=stackLayout;horizontal=1;startSize=50;horizontalStack=0;rounded=1;fontSize=14;fontStyle=0;strokeWidth=2;resizeParent=0;resizeLast=1;shadow=0;dashed=0;align=center;arcSize=4;whiteSpace=wrap;html=1;fillColor=#33FF33;" vertex="1" parent="1">
          <mxGeometry y="1020" width="160" height="120" as="geometry" />
        </mxCell>
        <mxCell id="97YN6V64Y0gJDFzc9_jx-48" value="* Название комнаты&lt;br&gt;&amp;nbsp; Привязанные устройства&lt;br&gt;&amp;nbsp; Статус комнаты" style="align=left;strokeColor=none;fillColor=none;spacingLeft=4;fontSize=12;verticalAlign=top;resizable=0;rotatable=0;part=1;html=1;" vertex="1" parent="97YN6V64Y0gJDFzc9_jx-47">
          <mxGeometry y="50" width="160" height="70" as="geometry" />
        </mxCell>
        <mxCell id="97YN6V64Y0gJDFzc9_jx-49" value="Устройство" style="swimlane;childLayout=stackLayout;horizontal=1;startSize=50;horizontalStack=0;rounded=1;fontSize=14;fontStyle=0;strokeWidth=2;resizeParent=0;resizeLast=1;shadow=0;dashed=0;align=center;arcSize=4;whiteSpace=wrap;html=1;fillColor=#33FF33;" vertex="1" parent="1">
          <mxGeometry x="-520" y="1100" width="156" height="135" as="geometry" />
        </mxCell>
        <mxCell id="97YN6V64Y0gJDFzc9_jx-50" value="* Номер устройства&lt;br style=&quot;border-color: var(--border-color);&quot;&gt;&amp;nbsp; Статус устройства&lt;br style=&quot;border-color: var(--border-color);&quot;&gt;&amp;nbsp; Цвет&lt;br style=&quot;border-color: var(--border-color);&quot;&gt;&amp;nbsp; Яркость&lt;br style=&quot;border-color: var(--border-color);&quot;&gt;&amp;nbsp; Энергосбережение" style="align=left;strokeColor=none;fillColor=none;spacingLeft=4;fontSize=12;verticalAlign=top;resizable=0;rotatable=0;part=1;html=1;" vertex="1" parent="97YN6V64Y0gJDFzc9_jx-49">
          <mxGeometry y="50" width="156" height="85" as="geometry" />
        </mxCell>
        <mxCell id="97YN6V64Y0gJDFzc9_jx-51" value="" style="edgeStyle=entityRelationEdgeStyle;fontSize=12;html=1;endArrow=ERmandOne;startArrow=ERoneToMany;rounded=0;exitX=1;exitY=0;exitDx=0;exitDy=0;startFill=0;entryX=0;entryY=0.576;entryDx=0;entryDy=0;entryPerimeter=0;endFill=0;" edge="1" parent="1" source="97YN6V64Y0gJDFzc9_jx-50" target="97YN6V64Y0gJDFzc9_jx-44">
          <mxGeometry width="100" height="100" relative="1" as="geometry">
            <mxPoint x="-20" y="1370" as="sourcePoint" />
            <mxPoint x="-310" y="920" as="targetPoint" />
          </mxGeometry>
        </mxCell>
        <mxCell id="97YN6V64Y0gJDFzc9_jx-83" value="Привязано" style="edgeLabel;html=1;align=center;verticalAlign=middle;resizable=0;points=[];" connectable="0" vertex="1" parent="97YN6V64Y0gJDFzc9_jx-51">
          <mxGeometry x="0.149" y="2" relative="1" as="geometry">
            <mxPoint as="offset" />
          </mxGeometry>
        </mxCell>
        <mxCell id="97YN6V64Y0gJDFzc9_jx-52" value="Сценарий" style="swimlane;childLayout=stackLayout;horizontal=1;startSize=50;horizontalStack=0;rounded=1;fontSize=14;fontStyle=0;strokeWidth=2;resizeParent=0;resizeLast=1;shadow=0;dashed=0;align=center;arcSize=4;whiteSpace=wrap;html=1;fillColor=#33FF33;" vertex="1" parent="1">
          <mxGeometry x="-160" y="1260" width="170" height="165" as="geometry" />
        </mxCell>
        <mxCell id="97YN6V64Y0gJDFzc9_jx-53" value="* Название сценария&lt;br style=&quot;border-color: var(--border-color);&quot;&gt;&amp;nbsp; Время сценария&lt;br style=&quot;border-color: var(--border-color);&quot;&gt;&amp;nbsp; Статус сценария&lt;br style=&quot;border-color: var(--border-color);&quot;&gt;&amp;nbsp; Время старта&lt;br style=&quot;border-color: var(--border-color);&quot;&gt;&amp;nbsp; Время окончания&lt;br style=&quot;border-color: var(--border-color);&quot;&gt;&amp;nbsp; Статус всех устройств" style="align=left;strokeColor=none;fillColor=none;spacingLeft=4;fontSize=12;verticalAlign=top;resizable=0;rotatable=0;part=1;html=1;" vertex="1" parent="97YN6V64Y0gJDFzc9_jx-52">
          <mxGeometry y="50" width="170" height="115" as="geometry" />
        </mxCell>
        <mxCell id="97YN6V64Y0gJDFzc9_jx-54" value="" style="edgeStyle=entityRelationEdgeStyle;fontSize=12;html=1;endArrow=ERzeroToMany;startArrow=ERoneToMany;rounded=0;endFill=0;entryX=0;entryY=0.25;entryDx=0;entryDy=0;exitX=1;exitY=0.75;exitDx=0;exitDy=0;startFill=0;" edge="1" parent="1" source="97YN6V64Y0gJDFzc9_jx-50" target="97YN6V64Y0gJDFzc9_jx-53">
          <mxGeometry width="100" height="100" relative="1" as="geometry">
            <mxPoint x="-680" y="1430" as="sourcePoint" />
            <mxPoint x="55" y="1327.5" as="targetPoint" />
          </mxGeometry>
        </mxCell>
        <mxCell id="97YN6V64Y0gJDFzc9_jx-85" value="Работает" style="edgeLabel;html=1;align=center;verticalAlign=middle;resizable=0;points=[];" connectable="0" vertex="1" parent="97YN6V64Y0gJDFzc9_jx-54">
          <mxGeometry x="0.1096" y="-4" relative="1" as="geometry">
            <mxPoint x="-6" y="-8" as="offset" />
          </mxGeometry>
        </mxCell>
        <mxCell id="97YN6V64Y0gJDFzc9_jx-55" value="Дом пользователя" style="swimlane;childLayout=stackLayout;horizontal=1;startSize=50;horizontalStack=0;rounded=1;fontSize=14;fontStyle=0;strokeWidth=2;resizeParent=0;resizeLast=1;shadow=0;dashed=0;align=center;arcSize=4;whiteSpace=wrap;html=1;fillColor=#33FF33;" vertex="1" parent="1">
          <mxGeometry x="-538" y="690" width="180" height="140" as="geometry" />
        </mxCell>
        <mxCell id="97YN6V64Y0gJDFzc9_jx-56" value="* Электронный адрес&lt;br&gt;* Уникальный номер дома&lt;br style=&quot;border-color: var(--border-color);&quot;&gt;&amp;nbsp; Статус привязки учётной&lt;br style=&quot;border-color: var(--border-color);&quot;&gt;&amp;nbsp;записи&lt;br style=&quot;border-color: var(--border-color);&quot;&gt;&lt;br&gt;" style="text;html=1;align=left;verticalAlign=middle;resizable=0;points=[];autosize=1;strokeColor=none;fillColor=none;" vertex="1" parent="97YN6V64Y0gJDFzc9_jx-55">
          <mxGeometry y="50" width="180" height="90" as="geometry" />
        </mxCell>
        <mxCell id="97YN6V64Y0gJDFzc9_jx-57" value="Создаёт" style="edgeStyle=entityRelationEdgeStyle;fontSize=12;html=1;endArrow=ERoneToMany;startArrow=ERmandOne;rounded=0;entryX=0;entryY=0.5;entryDx=0;entryDy=0;exitX=1;exitY=0.5;exitDx=0;exitDy=0;startFill=0;" edge="1" parent="1" source="97YN6V64Y0gJDFzc9_jx-42" target="97YN6V64Y0gJDFzc9_jx-55">
          <mxGeometry width="100" height="100" relative="1" as="geometry">
            <mxPoint x="-210" y="908" as="sourcePoint" />
            <mxPoint x="-320" y="780" as="targetPoint" />
          </mxGeometry>
        </mxCell>
        <mxCell id="97YN6V64Y0gJDFzc9_jx-58" value="Тип устройства" style="swimlane;childLayout=stackLayout;horizontal=1;startSize=50;horizontalStack=0;rounded=1;fontSize=14;fontStyle=0;strokeWidth=2;resizeParent=0;resizeLast=1;shadow=0;dashed=0;align=center;arcSize=4;whiteSpace=wrap;html=1;fillColor=#33FF33;" vertex="1" parent="1">
          <mxGeometry x="-800" y="1230" width="160" height="120" as="geometry" />
        </mxCell>
        <mxCell id="97YN6V64Y0gJDFzc9_jx-59" value="* Тип устройства&lt;br&gt;&amp;nbsp; &amp;nbsp;Лампочка&lt;br&gt;&amp;nbsp; &amp;nbsp;Розетка" style="align=left;strokeColor=none;fillColor=none;spacingLeft=4;fontSize=12;verticalAlign=top;resizable=0;rotatable=0;part=1;html=1;" vertex="1" parent="97YN6V64Y0gJDFzc9_jx-58">
          <mxGeometry y="50" width="160" height="70" as="geometry" />
        </mxCell>
        <mxCell id="97YN6V64Y0gJDFzc9_jx-60" value="" style="edgeStyle=entityRelationEdgeStyle;fontSize=12;html=1;endArrow=ERoneToMany;endFill=0;startArrow=ERmandOne;rounded=0;exitX=0.997;exitY=0.42;exitDx=0;exitDy=0;exitPerimeter=0;entryX=0.002;entryY=0.411;entryDx=0;entryDy=0;entryPerimeter=0;startFill=0;" edge="1" parent="1" source="97YN6V64Y0gJDFzc9_jx-59" target="97YN6V64Y0gJDFzc9_jx-50">
          <mxGeometry width="100" height="100" relative="1" as="geometry">
            <mxPoint x="-470" y="1315" as="sourcePoint" />
            <mxPoint x="-370" y="1215" as="targetPoint" />
          </mxGeometry>
        </mxCell>
        <mxCell id="97YN6V64Y0gJDFzc9_jx-84" value="Имеет" style="edgeLabel;html=1;align=center;verticalAlign=middle;resizable=0;points=[];" connectable="0" vertex="1" parent="97YN6V64Y0gJDFzc9_jx-60">
          <mxGeometry x="-0.075" y="-3" relative="1" as="geometry">
            <mxPoint as="offset" />
          </mxGeometry>
        </mxCell>
        <mxCell id="97YN6V64Y0gJDFzc9_jx-61" value="Тип комнаты" style="swimlane;childLayout=stackLayout;horizontal=1;startSize=50;horizontalStack=0;rounded=1;fontSize=14;fontStyle=0;strokeWidth=2;resizeParent=0;resizeLast=1;shadow=0;dashed=0;align=center;arcSize=4;whiteSpace=wrap;html=1;fillColor=#33FF33;" vertex="1" parent="1">
          <mxGeometry x="280" y="811" width="180" height="159" as="geometry" />
        </mxCell>
        <mxCell id="97YN6V64Y0gJDFzc9_jx-62" value="* Тип комнаты&lt;br&gt;&amp;nbsp; Кухня&lt;br&gt;&amp;nbsp; Спальня&lt;br&gt;&amp;nbsp; Ванна&lt;br&gt;&amp;nbsp; Гостевая&lt;br&gt;&amp;nbsp; Проходная&lt;br&gt;&amp;nbsp; Зал" style="text;html=1;align=left;verticalAlign=middle;resizable=0;points=[];autosize=1;strokeColor=none;fillColor=none;" vertex="1" parent="97YN6V64Y0gJDFzc9_jx-61">
          <mxGeometry y="50" width="180" height="109" as="geometry" />
        </mxCell>
        <mxCell id="97YN6V64Y0gJDFzc9_jx-63" value="" style="edgeStyle=entityRelationEdgeStyle;fontSize=12;html=1;endArrow=ERmandOne;startArrow=ERoneToMany;rounded=0;endFill=0;entryX=-0.012;entryY=0.38;entryDx=0;entryDy=0;entryPerimeter=0;exitX=1.013;exitY=0.1;exitDx=0;exitDy=0;exitPerimeter=0;startFill=0;" edge="1" parent="1" source="97YN6V64Y0gJDFzc9_jx-48" target="97YN6V64Y0gJDFzc9_jx-62">
          <mxGeometry width="100" height="100" relative="1" as="geometry">
            <mxPoint x="250" y="1090" as="sourcePoint" />
            <mxPoint x="360" y="710" as="targetPoint" />
          </mxGeometry>
        </mxCell>
        <mxCell id="97YN6V64Y0gJDFzc9_jx-82" value="Имеет" style="edgeLabel;html=1;align=center;verticalAlign=middle;resizable=0;points=[];" connectable="0" vertex="1" parent="97YN6V64Y0gJDFzc9_jx-63">
          <mxGeometry x="0.0063" y="-5" relative="1" as="geometry">
            <mxPoint as="offset" />
          </mxGeometry>
        </mxCell>
        <mxCell id="97YN6V64Y0gJDFzc9_jx-64" value="" style="edgeStyle=entityRelationEdgeStyle;fontSize=12;html=1;endArrow=ERmandOne;startArrow=ERzeroToMany;rounded=0;exitX=1.013;exitY=0.4;exitDx=0;exitDy=0;entryX=0;entryY=0.5;entryDx=0;entryDy=0;endFill=0;exitPerimeter=0;" edge="1" parent="1" source="97YN6V64Y0gJDFzc9_jx-50" target="97YN6V64Y0gJDFzc9_jx-48">
          <mxGeometry width="100" height="100" relative="1" as="geometry">
            <mxPoint x="-130" y="1240" as="sourcePoint" />
            <mxPoint x="-47" y="1080" as="targetPoint" />
          </mxGeometry>
        </mxCell>
      </root>
    </mxGraphModel>
  </diagram>
</mxfile>
